<svg width="100" height="100" viewBox="0 0 100 100" fill="none" xmlns="http://www.w3.org/2000/svg">
<path d="M50 0C22.3875 0 0 22.3875 0 50C0 77.6125 22.3875 100 50 100C77.6125 100 100 77.6125 100 50C100 22.3875 77.6125 0 50 0ZM83.3458 36.0708C78.0292 22.2333 64.7625 16.8833 60.2875 17.1667C74.9917 22.9 78.5083 42.4125 77.2042 48.1708C75.925 41.4167 71.8458 35.6 69.4042 34.0667C83.6417 67.4208 49.2583 77.6708 38.7667 66.0958C41.4708 66.7958 46.8125 66.45 50.8125 63.775C54.5542 61.2667 54.9083 61.1167 57.3125 60.9292C60.1708 60.7083 57.1417 55.0708 50.9 56.025C48.3333 56.4167 44.1 59.4375 38.9 57.4458C32.6167 55.0458 32.8167 46.4708 39.3 49.05C40.7042 47.2292 39.6667 43.7875 39.6667 43.7875C41.55 42.0625 43.925 40.8458 45.375 39.9917C46.325 39.4292 48.8292 37.8792 48.6875 34.8667C48.175 34.4667 47.3542 33.9542 45.4958 34.0625C38.2625 34.5208 37.7792 31.9042 37.3 30.6958C37.625 27.9125 39.4833 24.3042 42.9708 22.65C37.7333 21.8458 33.4708 24.3042 31.35 27.4583C27.9792 26.7333 25.9125 26.6958 22.525 27.3292C21.2083 26.3292 19.75 24.5375 18.8667 22.4083C26.5 13.8 37.6125 8.33333 50 8.33333C74.6333 8.33333 84.4292 26.1792 83.3458 36.0708Z" fill="#999999"/>
</svg>
