<svg width="104" height="104" viewBox="0 0 104 104" fill="none" xmlns="http://www.w3.org/2000/svg">
<g clip-path="url(#clip0)">
<path d="M12.5537 18.1177C23.0837 5.863 37.5267 0 51.8657 0C70.447 0 88.8507 9.84967 98.306 28.4007C86.5107 28.405 68.042 28.4007 58.0363 28.4007C50.7823 28.405 46.098 28.2403 41.0237 30.9097C35.061 34.047 30.5587 39.8667 28.99 46.7003L12.5537 18.1177V18.1177ZM34.697 52C34.697 61.5333 42.4493 69.29 51.9783 69.29C61.5073 69.29 69.2597 61.5333 69.2597 52C69.2597 42.4667 61.5073 34.7057 51.9783 34.7057C42.4493 34.7057 34.697 42.4667 34.697 52ZM58.6863 74.633C48.9883 77.519 37.635 74.3167 31.4167 63.5873C26.6717 55.393 14.131 33.5443 8.42833 23.6123C2.665 32.4523 0 42.2197 0 51.8093C0 75.4173 16.146 97.9593 41.9163 103.021L58.6863 74.633ZM68.0377 34.7057C76.115 42.2197 77.8787 54.3877 72.4013 63.8213C68.2803 70.9323 55.12 93.1407 48.7413 103.896C79.8937 105.816 104 80.6693 104 52.0173C104 46.3277 103.047 40.4907 101.01 34.7057H68.0377V34.7057Z" fill="#999999"/>
</g>
<defs>
<clipPath id="clip0">
<rect width="104" height="104" fill="white"/>
</clipPath>
</defs>
</svg>
