<svg width="200" height="200" viewBox="0 0 200 200" fill="none" xmlns="http://www.w3.org/2000/svg">
<path d="M189.967 110.591C189.84 111.684 189.571 112.559 189.159 113.215C188.762 113.891 188.317 114.477 187.823 114.973C187.536 115.275 187.474 115.52 187.637 115.706C187.815 115.912 188.256 116.089 188.96 116.238L188.893 116.809C188.252 116.701 187.468 116.584 186.543 116.46C185.634 116.337 184.419 116.188 182.896 116.01L182.962 115.439C183.733 115.445 184.391 115.413 184.936 115.342C185.498 115.273 185.999 115.147 186.44 114.963C186.881 114.779 187.291 114.492 187.672 114.1C188.134 113.734 188.496 113.289 188.758 112.766C189.02 112.243 189.186 111.683 189.255 111.087C189.359 110.193 189.207 109.404 188.8 108.719C188.409 108.036 187.831 107.448 187.066 106.957C186.299 106.482 185.413 106.093 184.408 105.792C183.419 105.492 182.378 105.279 181.286 105.152C180.176 105.023 179.098 104.989 178.05 105.052C177.018 105.133 176.081 105.326 175.24 105.631C174.397 105.953 173.707 106.409 173.169 107.001C172.63 107.593 172.31 108.327 172.208 109.205C172.145 109.751 172.181 110.309 172.316 110.878C172.466 111.466 172.717 111.982 173.068 112.426C173.49 113.129 174.051 113.639 174.753 113.956C175.471 114.274 176.436 114.562 177.648 114.821L177.581 115.392C176.009 115.209 174.733 115.069 173.754 114.972C172.792 114.877 171.978 114.807 171.312 114.763L171.378 114.192C172.098 114.209 172.558 114.145 172.76 114.001C172.959 113.873 172.964 113.613 172.774 113.222C172.415 112.559 172.11 111.861 171.86 111.127C171.624 110.412 171.568 109.516 171.693 108.44C171.896 106.685 172.431 105.187 173.296 103.945C174.16 102.72 175.304 101.821 176.73 101.249C178.155 100.676 179.812 100.5 181.699 100.72C183.553 100.935 185.132 101.497 186.436 102.403C187.739 103.327 188.703 104.488 189.329 105.886C189.954 107.301 190.166 108.869 189.967 110.591Z" fill="#017113"/>
<path d="M182.541 137.137C181.765 136.784 181.014 136.458 180.289 136.16C179.559 135.877 178.997 135.664 178.606 135.522C178.261 135.397 177.929 135.285 177.61 135.187C177.291 135.089 177.019 135.008 176.794 134.944L176.99 134.403C178.397 134.63 179.555 134.687 180.464 134.574C181.368 134.477 182.073 134.218 182.579 133.799C183.101 133.386 183.492 132.819 183.753 132.098L183.949 131.557L170.53 126.686C169.904 126.458 169.411 126.35 169.052 126.362C168.688 126.389 168.386 126.563 168.146 126.884C167.921 127.21 167.677 127.715 167.411 128.399L166.941 128.229C167.133 127.748 167.384 127.104 167.694 126.294C167.999 125.501 168.31 124.665 168.628 123.788C168.94 122.926 169.227 122.108 169.489 121.334C169.751 120.561 169.96 119.936 170.114 119.46L170.584 119.631C170.344 120.341 170.207 120.894 170.17 121.289C170.149 121.689 170.273 122.009 170.541 122.248C170.809 122.487 171.256 122.72 171.883 122.948L185.301 127.819L185.488 127.302C185.749 126.581 185.811 125.894 185.675 125.242C185.555 124.596 185.178 123.945 184.547 123.29C183.931 122.641 183.008 121.934 181.779 121.168L181.974 120.627C182.182 120.738 182.443 120.851 182.756 120.964C183.064 121.094 183.39 121.221 183.735 121.346C184.126 121.488 184.696 121.677 185.444 121.913C186.186 122.165 186.968 122.405 187.789 122.632C187.513 123.347 187.214 124.125 186.892 124.966C186.564 125.822 186.244 126.681 185.933 127.543C185.621 128.405 185.34 129.181 185.09 129.87C184.835 130.576 184.555 131.351 184.248 132.198C183.937 133.06 183.632 133.925 183.336 134.792C183.04 135.66 182.775 136.441 182.541 137.137Z" fill="#017113"/>
<path d="M180.353 141.947C180.113 142.288 179.797 142.748 179.403 143.327C179 143.92 178.609 144.511 178.23 145.099C177.796 145.771 177.382 146.427 176.99 147.066C176.597 147.705 176.315 148.158 176.143 148.424C174.886 150.37 173.562 151.577 172.169 152.045C170.775 152.513 169.47 152.353 168.253 151.565C167.75 151.238 167.282 150.796 166.849 150.238C166.43 149.688 166.136 149.021 165.968 148.237C165.804 147.476 165.838 146.594 166.068 145.592C166.299 144.59 166.812 143.472 167.607 142.24L168.99 140.098L169.41 140.369L168.163 142.302C167.629 143.128 167.416 143.873 167.522 144.538C167.62 145.217 167.927 145.833 168.443 146.385C168.95 146.952 169.56 147.466 170.273 147.928C171.602 148.789 172.722 149.236 173.633 149.27C174.543 149.304 175.306 148.845 175.92 147.893C176.273 147.347 176.385 146.912 176.255 146.59C176.117 146.282 175.684 145.893 174.957 145.422L164.675 138.762C164.129 138.409 163.687 138.202 163.349 138.142C163.011 138.082 162.696 138.185 162.404 138.453C162.113 138.721 161.756 139.165 161.336 139.786L160.874 139.487C161.168 139.062 161.544 138.511 162.001 137.834C162.458 137.157 162.93 136.44 163.418 135.684C163.807 135.082 164.179 134.49 164.536 133.906C164.893 133.323 165.213 132.796 165.497 132.325L165.917 132.597C165.656 133.063 165.495 133.435 165.434 133.714C165.374 133.992 165.446 134.248 165.653 134.481C165.851 134.728 166.201 135.015 166.705 135.341L177.112 142.082C177.63 142.417 178.035 142.62 178.327 142.69C178.624 142.783 178.891 142.738 179.129 142.554C179.371 142.393 179.64 142.101 179.934 141.676L180.353 141.947Z" fill="#017113"/>
<path d="M163.034 164.708L147.759 157.765C147.174 157.499 146.698 157.382 146.333 157.413C145.967 157.468 145.695 157.572 145.517 157.723L145.167 157.365C145.548 157.039 145.982 156.637 146.47 156.159C146.958 155.704 147.446 155.237 147.934 154.759C148.481 154.222 148.993 153.709 149.469 153.219C149.957 152.741 150.333 152.349 150.595 152.046L150.944 152.403C150.361 153.022 150.079 153.497 150.099 153.827C150.118 154.181 150.544 154.546 151.376 154.921L162.535 160.262L162.667 161.042L158.464 151.3C158.085 150.387 157.722 149.693 157.373 149.218C157.013 148.754 156.669 148.461 156.341 148.34C156.001 148.23 155.659 148.25 155.316 148.399C154.972 148.572 154.616 148.828 154.248 149.166L153.898 148.808C154.314 148.447 154.701 148.092 155.058 147.742C155.427 147.404 155.796 147.054 156.164 146.692C156.426 146.435 156.671 146.185 156.897 145.939C157.123 145.718 157.314 145.507 157.469 145.309L157.818 145.666C157.615 145.959 157.516 146.371 157.522 146.902C157.528 147.432 157.727 148.148 158.117 149.049L164.266 163.501C164.064 163.676 163.855 163.868 163.641 164.078C163.415 164.3 163.212 164.51 163.034 164.708ZM154.412 158.386L154.063 158.028L159.383 152.814L159.554 153.346L154.412 158.386Z" fill="#017113"/>
<path d="M148.353 176.369L148.083 175.919C148.725 175.532 149.101 175.219 149.209 174.979C149.312 174.761 149.174 174.562 148.794 174.383L132.866 167.073C132.341 166.845 131.949 166.711 131.692 166.671C131.435 166.631 131.155 166.683 130.853 166.826L130.583 166.376C130.877 166.218 131.299 165.983 131.851 165.671C132.41 165.373 132.983 165.048 133.569 164.696C134.211 164.309 134.86 163.899 135.514 163.467C136.162 163.057 136.646 162.747 136.966 162.535L137.236 162.985C136.579 163.38 136.184 163.677 136.049 163.874C135.909 164.094 136.029 164.294 136.409 164.474L152.41 171.857C152.929 172.108 153.318 172.254 153.575 172.293C153.832 172.333 154.115 172.27 154.423 172.104L154.693 172.554C154.385 172.72 153.936 172.961 153.348 173.276C152.754 173.614 152.164 173.959 151.579 174.312C150.936 174.698 150.326 175.075 149.749 175.441C149.167 175.831 148.701 176.14 148.353 176.369ZM143.621 168.917C143.621 168.917 143.577 168.876 143.488 168.793C143.408 168.724 143.324 168.648 143.236 168.566C143.156 168.497 143.116 168.463 143.116 168.463L143.496 164.236C143.604 163.121 143.531 162.27 143.277 161.684C143.031 161.112 142.661 160.771 142.167 160.66C141.667 160.571 141.09 160.695 140.436 161.03L140.179 160.601C140.388 160.495 140.649 160.348 140.963 160.159C141.272 159.992 141.597 159.806 141.94 159.6C142.277 159.417 142.595 159.235 142.895 159.054C143.181 158.882 143.417 158.741 143.602 158.629C144.002 158.388 144.369 158.158 144.703 157.937C145.046 157.731 145.323 157.545 145.534 157.379L145.792 157.808C145.395 158.28 145.068 158.885 144.811 159.623C144.562 160.376 144.377 161.265 144.254 162.292L143.621 168.917ZM140.65 180.975L140.393 180.547C140.787 180.134 141.095 179.579 141.318 178.881C141.526 178.192 141.667 177.455 141.742 176.671L142.435 169.952C142.435 169.952 142.519 170.028 142.687 170.179C142.842 170.339 142.919 170.419 142.919 170.419L142.5 174.727C142.368 175.74 142.399 176.519 142.59 177.065C142.767 177.62 143.073 177.951 143.507 178.06C143.941 178.168 144.46 178.06 145.062 177.737L145.32 178.165C145.04 178.314 144.731 178.481 144.394 178.664C144.066 178.862 143.74 179.048 143.417 179.222C143.089 179.42 142.81 179.588 142.582 179.725C142.168 179.974 141.794 180.209 141.459 180.43C141.125 180.65 140.855 180.832 140.65 180.975Z" fill="#017113"/>
<path d="M126.702 186.734C125.01 187.242 123.43 187.342 121.964 187.034C120.481 186.731 119.196 186.038 118.106 184.955C117.022 183.889 116.205 182.437 115.656 180.601C115.121 178.813 115.012 177.14 115.329 175.583C115.646 174.026 116.338 172.678 117.407 171.54C118.46 170.406 119.808 169.592 121.452 169.099C123.144 168.591 124.731 168.489 126.214 168.792C127.68 169.1 128.958 169.795 130.048 170.878C131.137 171.96 131.954 173.412 132.498 175.232C133.033 177.02 133.142 178.693 132.825 180.25C132.492 181.811 131.807 183.157 130.771 184.286C129.718 185.42 128.362 186.236 126.702 186.734ZM126.669 186.274C127.563 186.006 128.237 185.412 128.693 184.492C129.132 183.577 129.347 182.434 129.337 181.062C129.31 179.695 129.049 178.181 128.552 176.521C128.046 174.828 127.404 173.411 126.628 172.27C125.84 171.149 125.001 170.348 124.109 169.867C123.206 169.408 122.331 169.305 121.485 169.559C120.591 169.827 119.925 170.419 119.485 171.334C119.03 172.253 118.815 173.397 118.841 174.764C118.856 176.151 119.11 177.667 119.602 179.312C120.113 181.02 120.762 182.435 121.55 183.556C122.321 184.682 123.159 185.474 124.062 185.934C124.954 186.415 125.823 186.528 126.669 186.274Z" fill="#017113"/>
<path d="M112.473 189.935C112.039 189.938 111.472 189.948 110.772 189.964C110.072 189.98 109.372 190.004 108.673 190.036C107.874 190.073 107.1 190.118 106.352 190.169C105.603 190.22 105.071 190.253 104.755 190.268C102.69 190.364 101.133 190.069 100.084 189.384C99.0178 188.699 98.4581 187.782 98.405 186.634C98.378 186.051 98.5255 185.452 98.8474 184.836C99.1693 184.221 99.6857 183.663 100.397 183.163C101.108 182.662 102.041 182.277 103.196 182.007L103.194 181.957C101.624 181.913 100.37 181.687 99.4337 181.28C98.4972 180.873 97.8146 180.363 97.3857 179.749C96.9569 179.134 96.7267 178.486 96.6951 177.803C96.6466 176.755 96.8805 175.859 97.3967 175.118C97.913 174.377 98.6784 173.79 99.6929 173.36C100.708 172.945 101.932 172.705 103.364 172.639C103.763 172.62 104.338 172.602 105.088 172.584C105.839 172.582 106.747 172.557 107.812 172.507C108.545 172.473 109.26 172.432 109.959 172.383C110.658 172.35 111.223 172.307 111.655 172.254L111.678 172.753C111.146 172.811 110.75 172.896 110.488 173.009C110.226 173.121 110.061 173.329 109.992 173.632C109.906 173.937 109.876 174.389 109.904 174.988L110.477 187.375C110.506 187.991 110.576 188.438 110.689 188.716C110.786 189.012 110.979 189.203 111.267 189.29C111.538 189.394 111.933 189.443 112.449 189.435L112.473 189.935ZM105.057 189.779C105.707 189.748 106.125 189.587 106.311 189.295C106.481 189.003 106.546 188.425 106.506 187.559L105.933 175.172C105.906 174.59 105.844 174.15 105.747 173.854C105.634 173.559 105.458 173.367 105.22 173.278C104.966 173.19 104.597 173.157 104.114 173.179C102.916 173.235 102.059 173.65 101.544 174.425C101.014 175.217 100.781 176.312 100.845 177.711C100.905 178.993 101.275 179.968 101.957 180.638C102.622 181.307 103.695 181.608 105.177 181.539L107.3 181.441C107.3 181.441 107.303 181.507 107.309 181.64C107.316 181.79 107.319 181.865 107.319 181.865L105.171 181.965C104.389 182.001 103.798 182.212 103.399 182.598C103 183 102.732 183.513 102.594 184.137C102.457 184.777 102.405 185.455 102.438 186.171C102.495 187.403 102.729 188.318 103.141 188.917C103.553 189.531 104.192 189.819 105.057 189.779Z" fill="#017113"/>
<path d="M83.5371 188.995L80.3714 172.505C80.2496 171.873 80.0703 171.416 79.8335 171.136C79.5773 170.869 79.336 170.706 79.1095 170.647L79.1992 170.155C79.6851 170.278 80.2641 170.401 80.9362 170.524C81.589 170.661 82.2515 170.791 82.9236 170.914C83.6777 171.052 84.3924 171.174 85.0675 171.281C85.7397 171.404 86.2755 171.485 86.6749 171.524L86.5851 172.016C85.7431 171.896 85.193 171.939 84.935 172.146C84.6576 172.367 84.6065 172.925 84.7818 173.821L86.875 186.023L86.3157 186.581L91.8311 177.526C92.3563 176.691 92.7123 175.993 92.899 175.435C93.0693 174.873 93.1091 174.423 93.0184 174.084C92.9114 173.742 92.6976 173.475 92.3773 173.28C92.0376 173.1 91.6233 172.956 91.1345 172.849L91.2243 172.358C91.7593 172.489 92.2727 172.6 92.7645 172.691C93.2533 172.797 93.7519 172.897 94.2601 172.99C94.6208 173.056 94.9665 173.111 95.2974 173.154C95.6089 173.211 95.8906 173.246 96.1425 173.258L96.0527 173.75C95.6965 173.753 95.3036 173.909 94.8741 174.221C94.4446 174.532 93.9754 175.106 93.4665 175.945L85.2339 189.306C84.9746 189.241 84.6974 189.182 84.4023 189.128C84.0908 189.071 83.8024 189.027 83.5371 188.995ZM83.71 178.301L83.7997 177.809L91.1279 179.151L90.7922 179.598L83.71 178.301Z" fill="#017113"/>
<path d="M56.4965 179.34L56.7441 178.905C57.2153 179.156 57.6028 179.301 57.9065 179.34C58.1875 179.385 58.4384 179.299 58.6594 179.079C58.872 178.875 59.131 178.504 59.4365 177.969L65.5776 167.196C65.8747 166.675 66.0614 166.263 66.1377 165.961C66.1994 165.651 66.1394 165.386 65.9574 165.167C65.7755 164.948 65.4613 164.691 65.0148 164.397L65.2624 163.963C65.6366 164.215 66.1202 164.511 66.7133 164.85C67.2982 165.204 67.8945 165.555 68.5021 165.902C69.1965 166.3 69.8589 166.669 70.4893 167.01C71.0969 167.358 71.5898 167.621 71.968 167.799L71.7204 168.233C71.2409 167.997 70.8607 167.856 70.5797 167.811C70.2987 167.765 70.0477 167.852 69.8268 168.071C69.5914 168.282 69.3252 168.648 69.028 169.17L62.8869 179.942C62.5815 180.478 62.402 180.894 62.3485 181.19C62.2722 181.492 62.3323 181.756 62.5288 181.984C62.7024 182.218 63.0094 182.47 63.4496 182.741L63.202 183.175C62.8486 182.954 62.3722 182.662 61.7728 182.3C61.159 181.93 60.5049 181.546 59.8104 181.149C59.2028 180.801 58.5983 180.465 57.9969 180.14C57.3955 179.816 56.8953 179.549 56.4965 179.34ZM61.5805 172.744C60.4232 172.082 59.4672 171.42 58.7127 170.758C57.9355 170.102 57.4103 169.408 57.1371 168.676C56.8412 167.949 56.8344 167.12 57.1168 166.187L58.1466 162.917C58.3693 162.257 58.4743 161.77 58.4617 161.455C58.4409 161.155 58.2858 160.923 57.9964 160.757C57.8146 160.672 57.6451 160.633 57.4881 160.639C57.3084 160.652 57.1008 160.696 56.8653 160.773L56.7101 160.338C57.3483 160.127 57.9495 160.049 58.5135 160.103C59.0776 160.156 59.6779 160.365 60.3144 160.729C61.0956 161.176 61.6486 161.704 61.9734 162.312C62.2899 162.935 62.2677 163.748 61.9068 164.751L60.5984 168.409C60.3695 169.046 60.2532 169.603 60.2493 170.081C60.2311 170.551 60.3677 170.984 60.6593 171.381C60.9508 171.779 61.4438 172.176 62.1382 172.573L62.9846 173.057L62.7741 173.426L61.5805 172.744ZM62.5072 172.784L62.2967 173.153C61.6663 172.812 61.0072 172.656 60.3192 172.685C59.623 172.728 58.7916 172.924 57.825 173.274L55.6656 174.084C54.7299 174.412 54.0866 174.784 53.7357 175.197C53.3765 175.626 53.26 176.049 53.3863 176.466C53.5126 176.884 53.861 177.266 54.4314 177.611L54.1962 178.024C53.8572 177.811 53.5255 177.602 53.201 177.397C52.8683 177.207 52.5324 177.005 52.1935 176.792C51.8463 176.593 51.4629 176.374 51.0433 176.134C50.6093 175.886 50.2218 175.674 49.8808 175.498C49.5253 175.314 49.2133 175.155 48.9446 175.02L49.1799 174.607C49.7151 174.779 50.3297 174.862 51.0239 174.856C51.718 174.85 52.5557 174.676 53.5368 174.335L60.706 171.754L62.5072 172.784Z" fill="#017113"/>
<path d="M37.0076 165.41C35.7459 164.174 34.8953 162.838 34.4557 161.404C34.0042 159.958 33.9883 158.495 34.4079 157.016C34.8158 155.549 35.6894 154.13 37.0287 152.759C38.3331 151.424 39.7422 150.518 41.2561 150.041C42.77 149.565 44.2827 149.519 45.7942 149.903C47.2938 150.276 48.6566 151.063 49.8826 152.265C51.1443 153.502 52.0009 154.843 52.4524 156.289C52.892 157.723 52.9019 159.18 52.4824 160.659C52.0628 162.138 51.1892 163.557 49.8615 164.916C48.5572 166.252 47.1481 167.157 45.6342 167.634C44.1084 168.099 42.6016 168.151 41.1139 167.789C39.6143 167.417 38.2456 166.623 37.0076 165.41ZM37.3935 165.158C38.0601 165.812 38.9054 166.115 39.9293 166.068C40.9414 166.01 42.0444 165.644 43.2382 164.971C44.4201 164.285 45.6166 163.323 46.8278 162.083C48.0623 160.819 48.9907 159.57 49.6132 158.337C50.2121 157.104 50.506 155.98 50.4949 154.966C50.4603 153.951 50.1276 153.135 49.4967 152.517C48.8302 151.864 47.9908 151.566 46.9787 151.624C45.9548 151.671 44.8518 152.037 43.6699 152.722C42.4645 153.408 41.262 154.364 40.0624 155.592C38.8163 156.868 37.8938 158.123 37.2949 159.356C36.6841 160.577 36.396 161.695 36.4306 162.709C36.4417 163.724 36.7626 164.54 37.3935 165.158Z" fill="#017113"/>
<path d="M16.2841 135.604L16.7209 135.361C16.9944 135.819 17.2469 136.136 17.4783 136.313C17.6952 136.497 17.9589 136.56 18.2695 136.501C18.5574 136.436 18.9707 136.253 19.5094 135.953L30.3405 129.916C30.8646 129.624 31.2374 129.368 31.459 129.149C31.6724 128.916 31.7581 128.658 31.716 128.377C31.6738 128.095 31.5378 127.713 31.3079 127.23L31.7446 126.987C31.9422 127.411 32.2149 127.936 32.5629 128.563C32.8883 129.183 33.2291 129.813 33.5852 130.454C33.9737 131.154 34.3452 131.805 34.6997 132.409C35.0396 133.021 35.3293 133.508 35.5689 133.871L35.1322 134.114C34.8279 133.635 34.5632 133.296 34.3383 133.097C34.1053 132.884 33.8334 132.806 33.5228 132.865C33.2122 132.923 32.7949 133.099 32.2708 133.391L20.4571 139.976L20.3721 139.823L37.5332 137.355L37.7275 137.705L26.9424 151.444L37.4023 145.614C38.203 145.168 38.7974 144.779 39.1856 144.448C39.5592 144.126 39.7597 143.766 39.7871 143.369C39.7918 142.966 39.6525 142.423 39.3692 141.741L39.8059 141.498C39.9306 141.791 40.1184 142.163 40.3693 142.615C40.6056 143.075 40.8331 143.501 41.0516 143.895C41.2377 144.23 41.4352 144.568 41.644 144.91C41.8383 145.259 42.0147 145.543 42.1733 145.76L41.7366 146.003C41.4048 145.577 41.0868 145.297 40.7826 145.161C40.4784 145.025 40.1095 145.03 39.676 145.177C39.2198 145.316 38.6423 145.581 37.9436 145.971L28.117 151.448C27.5783 151.748 27.2096 152.011 27.0106 152.236C26.7891 152.455 26.7034 152.713 26.7536 153.009C26.7812 153.299 26.9132 153.674 27.1495 154.134L26.7128 154.377C26.5979 154.136 26.4505 153.836 26.2709 153.479C26.0912 153.121 25.9082 152.774 25.7221 152.439C25.3741 151.813 25.0269 151.205 24.6805 150.616C24.326 150.012 24.0119 149.481 23.7384 149.023L32.2602 138.262L33.0659 138.529L19.1177 140.551C18.9801 140.303 18.8384 140.048 18.6928 139.786C18.5471 139.523 18.4014 139.261 18.2557 138.999C17.8996 138.358 17.5443 137.735 17.1898 137.132C16.8272 136.513 16.5253 136.004 16.2841 135.604Z" fill="#017113"/>
<path d="M9.86581 111.51L10.3538 111.401C10.4858 111.918 10.6376 112.294 10.8093 112.529C10.9648 112.767 11.1998 112.903 11.5143 112.935C11.8089 112.955 12.2571 112.898 12.859 112.763L24.9619 110.065C25.5475 109.934 25.9777 109.796 26.2524 109.649C26.5235 109.486 26.679 109.264 26.7187 108.982C26.7585 108.7 26.7368 108.295 26.6536 107.767L27.1416 107.658C27.2031 108.088 27.3098 108.645 27.4616 109.328C27.5972 110.015 27.7517 110.749 27.9252 111.53C28.0771 112.214 28.2371 112.895 28.4052 113.575C28.5534 114.242 28.6908 114.783 28.8173 115.199L28.3293 115.308C28.1847 114.811 28.0346 114.443 27.8792 114.204C27.7201 113.95 27.4852 113.814 27.1743 113.798C26.8598 113.766 26.4097 113.815 25.8241 113.945L13.7212 116.644C13.1194 116.778 12.6829 116.927 12.4117 117.089C12.1406 117.252 11.9888 117.491 11.9563 117.806C11.9039 118.108 11.9391 118.535 12.062 119.088L12.6206 121.602C12.7435 122.155 12.8944 122.566 13.0734 122.833C13.2324 123.088 13.4692 123.231 13.7837 123.264C14.0982 123.296 14.5564 123.245 15.1583 123.111L27.2611 120.413C27.8468 120.282 28.2769 120.143 28.5517 119.997C28.8228 119.834 28.9782 119.611 29.018 119.329C29.0578 119.047 29.0361 118.642 28.9529 118.114L29.4409 118.006C29.506 118.452 29.6127 119.009 29.7609 119.676C29.8928 120.347 30.0347 121.024 30.1866 121.707C30.3637 122.504 30.5363 123.243 30.7045 123.922C30.8527 124.59 30.9901 125.131 31.1166 125.547L30.6286 125.656C30.484 125.158 30.3339 124.791 30.1785 124.552C30.0194 124.297 29.7844 124.162 29.4736 124.146C29.1591 124.113 28.709 124.162 28.1234 124.293L16.0205 126.991C15.4186 127.126 14.9903 127.272 14.7354 127.432C14.4607 127.578 14.3052 127.801 14.2691 128.099C14.2131 128.385 14.233 128.782 14.3288 129.29L13.8408 129.398C13.763 128.972 13.6582 128.423 13.5262 127.752C13.3907 127.065 13.2343 126.323 13.0571 125.526C12.8438 124.566 12.6242 123.616 12.3983 122.676C12.1561 121.74 11.9717 120.987 11.8451 120.417C11.7186 119.848 11.5686 119.096 11.395 118.161C11.2052 117.23 11.0055 116.293 10.7958 115.349C10.6223 114.568 10.4515 113.838 10.2834 113.158C10.1153 112.479 9.97607 111.929 9.86581 111.51Z" fill="#017113"/>
<path d="M9.49473 97.5146L25.3028 91.8653C25.9089 91.6483 26.3324 91.4013 26.5733 91.1244C26.798 90.8304 26.9218 90.567 26.9447 90.3342L27.4445 90.3477C27.3977 90.8466 27.3651 91.4376 27.3467 92.1207C27.3121 92.7867 27.2855 93.4612 27.2671 94.1443C27.2464 94.9107 27.2352 95.6356 27.2334 96.3192C27.215 97.0023 27.217 97.5442 27.2396 97.9449L26.7398 97.9314C26.7294 97.0808 26.6021 96.5438 26.3581 96.3205C26.0978 96.08 25.5383 96.1149 24.6796 96.4251L12.9443 100.359L12.3066 99.8916L22.1005 103.958C23.007 104.349 23.7506 104.595 24.3315 104.694C24.9128 104.776 25.3638 104.747 25.6844 104.605C26.0054 104.447 26.2373 104.195 26.38 103.849C26.5066 103.485 26.5849 103.054 26.615 102.555L27.1148 102.568C27.0667 103.117 27.0359 103.642 27.0224 104.141C26.9922 104.641 26.9702 105.149 26.9563 105.665C26.9464 106.032 26.9453 106.382 26.9529 106.715C26.9444 107.032 26.9534 107.316 26.98 107.566L26.4802 107.553C26.423 107.201 26.2077 106.837 25.8344 106.46C25.4611 106.083 24.821 105.707 23.9141 105.333L9.44821 99.239C9.47206 98.9728 9.48803 98.6898 9.49612 98.3899C9.50466 98.0734 9.5042 97.7816 9.49473 97.5146ZM20.0881 96.0507L20.5879 96.0642L20.387 103.512L19.8939 103.248L20.0881 96.0507Z" fill="#017113"/>
<path d="M29.9438 80.0312L29.4618 79.8984C29.5709 79.3753 29.6125 78.9718 29.5867 78.6881C29.561 78.4044 29.4145 78.1825 29.1473 78.0225C28.8846 77.8464 28.464 77.6786 27.8855 77.5192L15.931 74.2254C15.3365 74.0616 14.8894 73.9903 14.5898 74.0114C14.2785 74.0121 14.0372 74.1358 13.8657 74.3824C13.6826 74.6086 13.5146 74.9685 13.3618 75.4623L12.8797 75.3295C13.015 74.9 13.1855 74.3419 13.3913 73.6553C13.6016 72.9525 13.8016 72.2556 13.9914 71.5646C14.1944 70.8253 14.3761 70.132 14.5366 69.4847C14.7015 68.8213 14.8311 68.2865 14.9253 67.8803L15.4074 68.0131C15.2822 68.5318 15.2384 68.9433 15.2758 69.2475C15.3016 69.5312 15.4481 69.7531 15.7152 69.9131C15.9663 70.0688 16.3891 70.2285 16.9836 70.3923L28.9381 73.6861C29.5166 73.8455 29.9615 73.9249 30.2727 73.9242C30.5884 73.9075 30.8298 73.7838 30.9968 73.5532C31.1638 73.3226 31.334 72.9546 31.5074 72.4492L31.9894 72.582C31.847 72.9749 31.6853 73.5009 31.5043 74.1598C31.3117 74.7983 31.1139 75.4871 30.9109 76.2264C30.7211 76.9175 30.5372 77.6188 30.359 78.3304C30.1693 79.0215 30.0309 79.5885 29.9438 80.0312ZM27.1369 90.2528L26.6549 90.12C26.764 89.5969 26.8056 89.1935 26.7798 88.9097C26.754 88.626 26.6076 88.4042 26.3404 88.2441C26.0777 88.068 25.6571 87.9002 25.0786 87.7409L13.1241 84.447C12.5296 84.2832 12.0825 84.2119 11.7829 84.233C11.4716 84.2337 11.2302 84.3574 11.0588 84.604C10.8757 84.8302 10.7077 85.1901 10.5548 85.6839L10.0728 85.5511C10.2036 85.1377 10.3675 84.6037 10.5646 83.9492C10.766 83.2786 10.9748 82.5496 11.1911 81.7621C11.3764 81.087 11.5516 80.4179 11.7165 79.7545C11.8813 79.0911 12.0153 78.5403 12.1184 78.1019L12.6005 78.2347C12.4753 78.7534 12.4314 79.1649 12.4689 79.4691C12.4947 79.7528 12.6411 79.9747 12.9083 80.1347C13.1594 80.2904 13.5822 80.4501 14.1767 80.6139L26.1312 83.9077C26.7097 84.0671 27.1545 84.1465 27.4658 84.1458C27.7815 84.1291 28.0229 84.0054 28.1899 83.7748C28.3569 83.5442 28.5271 83.1762 28.7005 82.6708L29.1825 82.8036C29.0312 83.2287 28.8651 83.7707 28.6842 84.4296C28.4871 85.0842 28.2959 85.7489 28.1106 86.4239C27.8943 87.2114 27.7016 87.9449 27.5323 88.6244C27.3513 89.2833 27.2195 89.8261 27.1369 90.2528ZM19.9165 83.8809L19.4344 83.7481L22.0494 74.2256L22.5314 74.3584L19.9165 83.8809Z" fill="#017113"/>
<path d="M20.5704 56.3764L21.0159 56.6035C20.7891 57.0866 20.6635 57.4809 20.6391 57.7865C20.6074 58.0696 20.7063 58.3165 20.9358 58.527C21.1505 58.73 21.5325 58.9716 22.0819 59.2517L33.129 64.884C33.6635 65.1565 34.0833 65.3238 34.3883 65.3857C34.7008 65.4328 34.9621 65.3602 35.172 65.1679C35.3819 64.9756 35.6225 64.6493 35.8938 64.189L36.3392 64.4161C36.1056 64.8021 35.8341 65.2997 35.5245 65.9089C35.2001 66.5105 34.8794 67.1234 34.5623 67.7474C34.1923 68.4755 33.8562 69.1554 33.554 69.787C33.2444 70.3962 33.0063 70.9015 32.8397 71.303L32.3943 71.0759C32.6062 70.5852 32.728 70.1984 32.7597 69.9152C32.7914 69.632 32.6925 69.3852 32.463 69.1746C32.241 68.9492 31.8628 68.7002 31.3283 68.4277L20.2812 62.7954C19.7318 62.5153 19.3083 62.3555 19.0106 62.3159C18.7055 62.254 18.4443 62.3266 18.2269 62.5337C18.0021 62.7185 17.7653 63.0374 17.5164 63.4904L17.071 63.2633C17.2821 62.8846 17.5499 62.3944 17.8743 61.7928C18.2062 61.1763 18.5572 60.504 18.9272 59.7759C19.2443 59.1519 19.5502 58.5315 19.8449 57.9147C20.1396 57.2979 20.3814 56.7852 20.5704 56.3764Z" fill="#017113"/>
<path d="M32.417 39.2906L32.8123 39.5967C32.4996 40.0291 32.308 40.3866 32.2373 40.6692C32.1534 40.9415 32.1996 41.2091 32.3757 41.4719C32.5488 41.7114 32.8791 42.0199 33.3667 42.3974L43.171 49.9893C43.6454 50.3566 44.0266 50.5992 44.3147 50.7169C44.613 50.8214 44.8832 50.7987 45.1252 50.6488C45.3671 50.4989 45.6642 50.2231 46.0164 49.8212L46.4118 50.1274C46.1308 50.4368 45.7715 50.8752 45.3336 51.4426C44.8928 51.9865 44.4279 52.5752 43.9392 53.2085C43.5217 53.7495 43.1057 54.3022 42.6912 54.8665C42.2635 55.4207 41.9305 55.8795 41.6921 56.243L41.2968 55.9368C41.5861 55.5074 41.7727 55.1565 41.8565 54.8842C41.9506 54.5987 41.9044 54.3311 41.7182 54.0814C41.542 53.8186 41.2168 53.5035 40.7424 53.1361L30.9381 45.5443C30.2529 45.0137 29.7372 44.7408 29.391 44.7256C29.0549 44.6973 28.6883 44.9404 28.2912 45.455C27.5988 46.3522 27.3934 47.2049 27.6749 48.0132C27.9564 48.8214 28.6045 49.6184 29.6192 50.4041C30.2386 50.8837 30.8612 51.2499 31.4872 51.5027C32.0999 51.7453 32.7157 51.7795 33.3344 51.6051C33.94 51.4206 34.5432 50.9391 35.144 50.1606L36.4575 48.4586C36.4575 48.4586 36.5234 48.5096 36.6552 48.6116C36.787 48.7137 36.8528 48.7647 36.8528 48.7647L35.3865 50.6647C34.4803 51.839 33.6264 52.7271 32.825 53.3291C32.0236 53.9311 31.2718 54.3187 30.5698 54.4918C29.878 54.6517 29.2368 54.6505 28.6462 54.4883C28.0658 54.3129 27.5318 54.0364 27.0442 53.6589C26.2931 53.0772 25.8067 52.3844 25.5851 51.5804C25.3604 50.753 25.4203 49.8298 25.7647 48.8106C26.1193 47.7783 26.7701 46.6486 27.7171 45.4215C27.9106 45.1708 28.2379 44.7603 28.6991 44.1899C29.1705 43.6064 29.6557 42.9913 30.1546 42.3448C30.5823 41.7907 31.0034 41.2314 31.4179 40.667C31.8426 40.0895 32.1756 39.6306 32.417 39.2906ZM36.4252 48.6232L36.7307 48.923L35.0811 51.0605C34.7654 51.4695 34.6411 51.8897 34.7082 52.3211C34.7723 52.7291 34.9643 53.1623 35.2841 53.6208C35.5908 54.0691 35.9853 54.5537 36.4675 55.0746L38.1692 56.9615C38.8742 57.7393 39.2001 58.4764 39.1467 59.1729C39.0934 59.8694 38.797 60.5673 38.2573 61.2666C37.8194 61.834 37.3504 62.2507 36.8503 62.5169C36.3633 62.7933 35.7832 62.9448 35.1099 62.9715L35.0866 62.5108C35.3333 62.4911 35.537 62.4591 35.6975 62.4147C35.8551 62.347 36.0066 62.2325 36.1521 62.0712C36.3456 61.8205 36.3878 61.5475 36.2788 61.2523C36.1698 60.9571 35.8925 60.5526 35.4468 60.0389L33.7316 58.0467C33.0206 57.2222 32.7148 56.3635 32.8142 55.4709C32.9137 54.5782 33.3288 53.5084 34.0595 52.2614C34.2134 51.9801 34.374 51.7039 34.5411 51.4328C34.7082 51.1617 34.9364 50.8115 35.2257 50.382C35.512 49.9292 35.9118 49.3429 36.4252 48.6232Z" fill="#017113"/>
<path d="M43.3306 28.5223C43.6904 28.252 44.0801 28.1469 44.4997 28.2068C44.9094 28.2534 45.2691 28.4835 45.5788 28.8971C45.8784 29.2974 46.0982 29.716 46.2379 30.1529C46.3911 30.5799 46.5408 31.0719 46.6873 31.629C46.847 32.176 47.0833 32.8532 47.3962 33.6604L47.1164 33.8706C46.4637 33.3604 45.8842 32.9619 45.378 32.6751C44.8851 32.3783 44.4555 32.0965 44.0892 31.8297C43.7129 31.5496 43.3749 31.2094 43.0753 30.8091C42.7656 30.3956 42.6408 29.9786 42.7008 29.5583C42.7609 29.1379 42.9708 28.7926 43.3306 28.5223ZM46.5486 26.1047C46.9084 25.8344 47.2982 25.7293 47.7178 25.7892C48.1275 25.8358 48.4871 26.0659 48.7968 26.4795C49.0965 26.8798 49.3162 27.2984 49.456 27.7353C49.6091 28.1623 49.7589 28.6543 49.9053 29.2114C50.0651 29.7585 50.3014 30.4356 50.6143 31.2428L50.3345 31.453C49.6818 30.9428 49.1023 30.5443 48.5961 30.2575C48.1032 29.9607 47.6736 29.6789 47.3073 29.4121C46.931 29.132 46.593 28.7918 46.2933 28.3916C45.9837 27.978 45.8588 27.561 45.9189 27.1407C45.9789 26.7203 46.1889 26.375 46.5486 26.1047Z" fill="#017113"/>
<path d="M58.6633 19.2473L71.165 30.4401C71.6447 30.869 72.0636 31.1231 72.4217 31.2024C72.7871 31.2593 73.0776 31.2422 73.293 31.1511L73.5195 31.5968C73.0589 31.7942 72.5243 32.0481 71.9155 32.3585C71.314 32.6465 70.7089 32.9456 70.1001 33.256C69.4171 33.6042 68.775 33.941 68.1738 34.2662C67.565 34.5766 67.09 34.8375 66.7487 35.0489L66.5222 34.6031C67.2644 34.1873 67.6753 33.8188 67.7551 33.4975C67.8422 33.1538 67.5447 32.6787 66.8627 32.0724L57.8102 23.639L57.9167 22.8551L59.016 33.4071C59.1046 34.3908 59.2439 35.1617 59.4339 35.7196C59.6388 36.2699 59.8798 36.6522 60.1569 36.8663C60.4488 37.0729 60.7809 37.1562 61.1531 37.1161C61.5326 37.0535 61.9488 36.9162 62.4018 36.7039L62.6283 37.1497C62.1233 37.3698 61.648 37.5934 61.2025 37.8205C60.7495 38.0327 60.2929 38.2562 59.8326 38.4909C59.5059 38.6574 59.1979 38.8238 58.9085 38.9901C58.6264 39.1339 58.3815 39.2775 58.1739 39.4207L57.9474 38.975C58.229 38.7566 58.4463 38.3932 58.5993 37.8849C58.7523 37.3766 58.7771 36.6344 58.6737 35.6582L57.1266 20.0309C57.3717 19.9246 57.6279 19.8033 57.8951 19.6671C58.1773 19.5232 58.4333 19.3833 58.6633 19.2473ZM65.0016 27.8579L65.2281 28.3036L58.591 31.6875L58.5872 31.1282L65.0016 27.8579Z" fill="#017113"/>
<path d="M78.3309 11.5907C79.3998 11.3309 80.3136 11.2803 81.0722 11.4389C81.8432 11.5774 82.5469 11.7923 83.1833 12.0836C83.5661 12.2478 83.8169 12.2212 83.9357 12.0036C84.0667 11.7659 84.0803 11.291 83.9763 10.5787L84.5351 10.4429C84.6557 11.0825 84.8178 11.8578 85.0213 12.7688C85.221 13.6637 85.5013 14.8562 85.8623 16.3464L85.3035 16.4823C85.0421 15.7568 84.7838 15.1507 84.5286 14.6638C84.2696 14.1608 83.9776 13.7343 83.6528 13.3845C83.328 13.0346 82.9158 12.7489 82.4163 12.5273C81.9133 12.2207 81.371 12.0352 80.7895 11.9707C80.208 11.9063 79.6257 11.9449 79.0427 12.0866C78.1681 12.2992 77.4801 12.7151 76.9784 13.3344C76.4729 13.9376 76.1219 14.6832 75.9255 15.5714C75.7453 16.4556 75.6877 17.4216 75.7528 18.4691C75.8141 19.5005 75.9741 20.5508 76.2331 21.6199C76.496 22.7051 76.8382 23.7283 77.2596 24.6893C77.6933 25.6301 78.1987 26.4421 78.7757 27.1251C79.3689 27.8042 80.0363 28.2938 80.7777 28.5938C81.5192 28.8938 82.3191 28.9395 83.1775 28.7309C83.7119 28.601 84.2228 28.3739 84.7102 28.0496C85.2098 27.7052 85.6069 27.2914 85.9014 26.8082C86.4153 26.1687 86.6993 25.4651 86.7533 24.6972C86.8035 23.9132 86.7401 22.9081 86.5631 21.6819L87.1218 21.5461C87.4946 23.0849 87.8048 24.3302 88.0525 25.2819C88.2963 26.2175 88.5129 27.0053 88.7022 27.6454L88.1435 27.7812C87.91 27.1004 87.6906 26.6906 87.4855 26.5518C87.2966 26.409 87.0515 26.4943 86.7501 26.8077C86.2529 27.3745 85.7035 27.9026 85.1017 28.3918C84.5123 28.861 83.6912 29.2235 82.6385 29.4794C80.9218 29.8966 79.3313 29.9144 77.867 29.5328C76.4189 29.1473 75.1796 28.3851 74.1492 27.2462C73.1187 26.1074 72.3799 24.6146 71.9326 22.768C71.4931 20.9538 71.4729 19.2779 71.8721 17.7401C72.2875 16.1984 73.0427 14.8914 74.1377 13.8191C75.2489 12.7428 76.6466 12 78.3309 11.5907Z" fill="#017113"/>
<path d="M105.696 9.31135C105.636 10.1618 105.592 10.9789 105.565 11.7624C105.554 12.5459 105.55 13.1459 105.553 13.5626C105.556 13.9292 105.567 14.2792 105.587 14.6123C105.606 14.9455 105.625 15.2287 105.643 15.4619L105.068 15.4664C104.791 14.0685 104.44 12.9628 104.017 12.1494C103.611 11.3359 103.123 10.7646 102.554 10.4357C101.985 10.0901 101.317 9.92023 100.55 9.92615L99.9753 9.9306L100.085 24.2052C100.09 24.8718 100.161 25.3713 100.297 25.7036C100.449 26.0357 100.718 26.2587 101.102 26.3724C101.486 26.4694 102.045 26.5234 102.778 26.5344L102.782 27.0344C102.265 27.0217 101.574 27.0104 100.707 27.0005C99.8567 26.9904 98.965 26.9889 98.0317 26.9961C97.1151 27.0032 96.2485 27.0183 95.432 27.0412C94.6155 27.0642 93.9573 27.086 93.4574 27.1065L93.4536 26.6065C94.2034 26.5841 94.7696 26.5214 95.1522 26.4184C95.5346 26.2988 95.7912 26.0718 95.922 25.7374C96.0527 25.4031 96.1155 24.9026 96.1104 24.2359L96.0004 9.96134L95.4504 9.96559C94.6838 9.97152 94.0185 10.1517 93.4545 10.506C92.8904 10.8438 92.4115 11.4225 92.0178 12.2422C91.624 13.0453 91.2826 14.1563 90.9935 15.5752L90.4185 15.5797C90.4501 15.3461 90.4645 15.0626 90.462 14.7293C90.4761 14.3959 90.4817 14.0458 90.4789 13.6792C90.4757 13.2625 90.4544 12.6626 90.415 11.8796C90.3923 11.0964 90.3443 10.2801 90.2711 9.43063C91.0379 9.44137 91.8713 9.45159 92.7714 9.4613C93.6882 9.47087 94.6049 9.47212 95.5215 9.46503C96.4382 9.45794 97.2632 9.45156 97.9965 9.44589C98.7464 9.44009 99.5714 9.43371 100.471 9.42675C101.388 9.41966 102.305 9.40424 103.221 9.38048C104.138 9.35673 104.962 9.33368 105.696 9.31135Z" fill="#017113"/>
<path d="M111.687 9.72869C112.09 9.83717 112.631 9.97701 113.31 10.1482C114.005 10.3231 114.694 10.488 115.377 10.6429C116.157 10.82 116.914 10.9834 117.65 11.1331C118.385 11.2829 118.907 11.3928 119.215 11.4629C121.475 11.9756 123.064 12.8063 123.983 13.9549C124.902 15.1036 125.202 16.385 124.882 17.7993C124.75 18.3845 124.496 18.9764 124.122 19.575C123.751 20.1573 123.226 20.6621 122.549 21.0894C121.891 21.5041 121.052 21.7752 120.032 21.9026C119.012 22.03 117.787 21.9314 116.357 21.6068L113.87 21.0424L113.98 20.5547L116.223 21.0638C117.182 21.2814 117.955 21.2261 118.542 20.8979C119.145 20.5733 119.617 20.0737 119.958 19.399C120.315 18.728 120.587 17.978 120.774 17.1489C121.124 15.6046 121.157 14.3988 120.875 13.5315C120.593 12.6642 119.899 12.1051 118.794 11.8542C118.16 11.7104 117.714 11.7545 117.457 11.9866C117.215 12.2223 116.999 12.7629 116.808 13.6082L114.105 25.5563C113.962 26.1903 113.92 26.6765 113.98 27.0149C114.04 27.3533 114.246 27.6136 114.598 27.796C114.95 27.9784 115.49 28.1607 116.217 28.343L116.096 28.8794C115.596 28.7488 114.949 28.585 114.157 28.388C113.364 28.191 112.529 27.9929 111.651 27.7937C110.952 27.635 110.268 27.4882 109.598 27.3532C108.927 27.2182 108.322 27.098 107.782 26.9925L107.893 26.5049C108.42 26.5904 108.825 26.6139 109.107 26.5754C109.389 26.5369 109.604 26.3805 109.751 26.1064C109.915 25.8359 110.063 25.4081 110.196 24.8228L112.931 12.7284C113.067 12.1269 113.118 11.6769 113.083 11.3785C113.068 11.0674 112.933 10.8318 112.679 10.6715C112.445 10.4987 112.077 10.347 111.577 10.2164L111.687 9.72869Z" fill="#017113"/>
<path d="M138.901 18.1609L137.596 34.9053C137.546 35.5474 137.598 36.0352 137.753 36.3685C137.929 36.6941 138.119 36.9151 138.322 37.0314L138.105 37.4821C137.669 37.2349 137.143 36.9629 136.528 36.6662C135.935 36.3617 135.33 36.061 134.715 35.7643C134.024 35.4314 133.367 35.124 132.745 34.8423C132.129 34.5456 131.634 34.3254 131.259 34.1817L131.476 33.731C132.256 34.0701 132.798 34.174 133.101 34.0428C133.427 33.9037 133.623 33.3788 133.691 32.4679L134.897 20.144L135.584 19.7535L127.874 27.0268C127.147 27.6938 126.619 28.2721 126.291 28.7617C125.979 29.2585 125.821 29.6822 125.819 30.0328C125.832 30.3906 125.968 30.7056 126.225 30.9778C126.505 31.2422 126.866 31.4904 127.31 31.7226L127.093 32.1733C126.612 31.9044 126.146 31.6614 125.696 31.4442C125.253 31.2121 124.798 30.9838 124.333 30.7595C124.003 30.6002 123.684 30.4557 123.376 30.326C123.091 30.1885 122.829 30.0805 122.589 30.002L122.806 29.5513C123.15 29.6432 123.57 29.596 124.066 29.4097C124.563 29.2234 125.167 28.7931 125.879 28.1189L137.347 17.4118C137.58 17.5426 137.832 17.6732 138.102 17.8034C138.387 17.941 138.654 18.0601 138.901 18.1609ZM135.909 28.4302L135.692 28.8808L128.981 25.6456L129.423 25.3035L135.909 28.4302Z" fill="#017113"/>
<path d="M166.23 37.7295L165.902 38.1069C165.489 37.7689 165.144 37.5564 164.866 37.4691C164.6 37.3694 164.33 37.3998 164.058 37.5605C163.81 37.7196 163.483 38.0318 163.078 38.4973L154.944 47.8563C154.55 48.3091 154.287 48.6762 154.153 48.9574C154.031 49.2495 154.038 49.521 154.173 49.7717C154.309 50.0225 154.567 50.3357 154.947 50.7114L154.619 51.0888C154.289 50.7569 153.854 50.3554 153.314 49.8844C152.797 49.4117 152.262 48.9344 151.71 48.4524C151.107 47.9266 150.536 47.44 149.998 46.9924C149.47 46.5324 149.032 46.1725 148.684 45.9128L149.012 45.5355C149.461 45.8828 149.825 46.1118 150.104 46.2225C150.395 46.3442 150.677 46.3247 150.949 46.164C151.222 46.0033 151.555 45.6965 151.948 45.2437L160.821 35.0356L160.952 35.1506L145.653 43.3027L145.351 43.0398L150.825 26.4516L142.97 35.4899C142.368 36.1817 141.942 36.7492 141.689 37.1923C141.447 37.6229 141.381 38.0294 141.49 38.4121C141.623 38.793 141.938 39.256 142.436 39.8009L142.108 40.1783C141.891 39.945 141.588 39.6585 141.199 39.3189C140.82 38.9668 140.461 38.6428 140.122 38.347C139.833 38.0951 139.533 37.844 139.22 37.5936C138.919 37.3307 138.657 37.1242 138.434 36.9741L138.762 36.5967C139.218 36.8844 139.613 37.0404 139.945 37.0647C140.277 37.089 140.622 36.9587 140.98 36.6738C141.362 36.3873 141.815 35.9422 142.34 35.3384L149.72 26.8473C150.124 26.3819 150.382 26.0094 150.492 25.7298C150.626 25.4486 150.619 25.1772 150.471 24.9155C150.347 24.6522 150.095 24.3444 149.717 23.9923L150.045 23.6149C150.235 23.8027 150.475 24.0344 150.766 24.3099C151.056 24.5854 151.346 24.8491 151.635 25.101C152.175 25.5721 152.708 26.0258 153.234 26.4624C153.773 26.9099 154.248 27.3026 154.661 27.6406L150.303 40.6578L149.455 40.681L161.885 34.0397C162.098 34.226 162.318 34.4177 162.544 34.6149C162.77 34.812 162.996 35.0092 163.223 35.2064C163.775 35.6884 164.321 36.1531 164.859 36.6006C165.41 37.0591 165.867 37.4354 166.23 37.7295Z" fill="#017113"/>
<path d="M177.917 53.9054C177.272 54.26 176.657 54.6144 176.072 54.9687C175.496 55.3368 175.056 55.6233 174.752 55.8282C174.475 56.0145 174.217 56.1985 173.978 56.38C173.738 56.5615 173.54 56.7151 173.384 56.8407L173.063 56.3634C173.979 55.545 174.63 54.7949 175.015 54.1131C175.414 53.422 175.573 52.7621 175.492 52.1334C175.434 51.5091 175.196 50.8857 174.778 50.2632L174.206 49.4123C173.937 49.0111 173.698 48.7301 173.489 48.5691C173.281 48.4082 173.049 48.363 172.796 48.4335C172.542 48.5041 172.201 48.6838 171.772 48.9726L160.993 56.2387C160.564 56.5275 160.27 56.7764 160.109 56.9853C159.948 57.1942 159.903 57.4257 159.973 57.6798C160.043 57.9339 160.213 58.2615 160.483 58.6627L161.166 59.6796C161.584 60.3021 162.083 60.7601 162.661 61.0535C163.263 61.3514 164 61.4475 164.873 61.3417C165.754 61.2497 166.809 60.921 168.035 60.3556L168.356 60.8329C167.886 61.0895 167.291 61.46 166.573 61.9444C166.255 62.1587 165.81 62.4683 165.239 62.8734C164.668 63.2785 164.095 63.7253 163.519 64.2136C163.073 63.4894 162.552 62.6846 161.957 61.7992C161.376 60.9045 160.854 60.1112 160.389 59.4195C160.156 59.0736 159.859 58.6309 159.497 58.0914C159.134 57.5518 158.737 56.9754 158.305 56.3622C157.887 55.7396 157.457 55.1148 157.015 54.4877C156.588 53.8513 156.177 53.2542 155.782 52.6963L156.196 52.4168C156.521 52.8409 156.8 53.1356 157.031 53.3011C157.263 53.4666 157.527 53.5 157.822 53.4015C158.126 53.3169 158.527 53.1068 159.025 52.7715L169.307 45.8407C169.818 45.496 170.164 45.203 170.343 44.9616C170.545 44.7247 170.609 44.4608 170.534 44.1697C170.482 43.8831 170.319 43.5207 170.044 43.0826L170.459 42.8031C170.826 43.3796 171.217 43.9907 171.63 44.6365C172.058 45.2729 172.474 45.907 172.878 46.5389C173.296 47.1614 173.687 47.7425 174.049 48.282C174.412 48.8216 174.709 49.2643 174.941 49.6102C175.369 50.2466 175.852 50.966 176.391 51.7684C176.953 52.5753 177.462 53.2877 177.917 53.9054ZM168.653 55.447C168.653 55.447 168.584 55.4936 168.445 55.5867C168.307 55.6799 168.238 55.7265 168.238 55.7265L165.798 52.0949C165.798 52.0949 165.868 52.0483 166.006 51.9551C166.144 51.862 166.213 51.8154 166.213 51.8154L168.653 55.447ZM171.793 54.2043C170.969 54.68 170.349 55.0575 169.934 55.337C169.529 55.6303 169.153 55.8934 168.808 56.1263C168.462 56.3592 168.087 56.6223 167.682 56.9156C167.276 57.2089 166.698 57.6487 165.948 58.235L165.627 57.7577C166.064 57.3625 166.425 56.9283 166.71 56.4552C167.004 55.9959 167.159 55.5094 167.175 54.9959C167.205 54.473 167.035 53.9349 166.663 53.3815L167.077 53.102C167.356 53.5171 167.676 53.814 168.037 53.9927C168.412 54.1621 168.798 54.2436 169.195 54.2372C169.616 54.2352 170.022 54.1824 170.414 54.0789C170.806 53.9753 171.159 53.858 171.473 53.727L171.793 54.2043Z" fill="#017113"/>
<path d="M186.212 72.4183L185.747 72.6012C185.525 72.0797 185.304 71.7006 185.086 71.4639C184.89 71.2367 184.634 71.1314 184.318 71.1481C184.018 71.1586 183.581 71.2767 183.007 71.5023L171.467 76.0387C170.908 76.2582 170.497 76.4647 170.233 76.6581C169.99 76.861 169.863 77.1079 169.852 77.3989C169.856 77.6838 169.955 78.0745 170.15 78.5711L170.423 79.2694C169.794 79.4451 169.194 79.6272 168.624 79.8157C168.059 80.0197 167.629 80.1796 167.335 80.2954C167.025 80.4174 166.748 80.5349 166.506 80.648C166.249 80.7672 166.03 80.8711 165.85 80.9598L165.64 80.4244C166.603 79.8668 167.32 79.2984 167.791 78.7192C168.247 78.1461 168.492 77.5392 168.528 76.8985C168.569 76.2733 168.447 75.596 168.161 74.8667L165.955 69.2335C165.669 68.5042 165.295 67.9167 164.834 67.4711C164.38 67.0411 163.791 66.7712 163.067 66.6615C162.329 66.5579 161.417 66.6297 160.333 66.8769L160.123 66.3416C160.321 66.2994 160.552 66.2265 160.816 66.1229C161.07 66.0408 161.352 65.9389 161.662 65.8169C161.957 65.7011 162.378 65.5179 162.924 65.2673C163.476 65.0323 164.043 64.7649 164.623 64.465L167.277 71.2387C167.484 71.7663 167.685 72.1437 167.882 72.371C168.1 72.6076 168.367 72.7176 168.682 72.701C169.014 72.6782 169.458 72.5571 170.017 72.3376L181.557 67.8012C182.131 67.5756 182.536 67.3536 182.773 67.1352C183.016 66.9323 183.135 66.6885 183.131 66.4036C183.148 66.1281 183.081 65.7964 182.929 65.4085L182.81 65.1059C182.683 64.78 182.525 64.5375 182.337 64.3785C182.165 64.2133 181.911 64.1343 181.573 64.1416C181.258 64.1582 180.811 64.253 180.235 64.426C179.32 64.6959 178.336 64.9933 177.282 65.3181C176.234 65.6585 175.161 65.9817 174.064 66.2877C172.982 66.5876 171.921 66.8257 170.88 67.002C169.861 67.1877 168.907 67.267 168.02 67.2399C167.147 67.2067 166.386 67.0224 165.736 66.6871C165.101 66.3458 164.637 65.8026 164.345 65.0578L164.788 64.884C165.067 65.5978 165.565 66.0916 166.281 66.3654C167.012 66.633 167.893 66.7344 168.924 66.6695C169.955 66.6046 171.085 66.4289 172.315 66.1423C173.567 65.8651 174.847 65.5231 176.156 65.1162C177.464 64.7093 178.754 64.3008 180.025 63.8906C180.58 63.7082 180.979 63.5156 181.222 63.3127C181.471 63.1254 181.595 62.8707 181.594 62.5487C181.593 62.2267 181.491 61.7833 181.287 61.2186L181.753 61.0356C181.865 61.3676 182.001 61.7617 182.162 62.2178C182.323 62.6739 182.476 63.0882 182.622 63.4606C182.762 63.8176 182.904 64.1559 183.047 64.4757C183.211 64.8049 183.361 65.1402 183.494 65.4816C183.726 66.0713 183.92 66.6128 184.077 67.106C184.25 67.5932 184.467 68.1704 184.729 68.8377C184.881 69.2257 185.045 69.6447 185.221 70.0947C185.419 70.5541 185.597 70.9856 185.755 71.3891C185.935 71.802 186.087 72.145 186.212 72.4183Z" fill="#017113"/>
<path d="M188.461 79.1582C188.55 79.5993 188.477 79.9967 188.243 80.3504C188.025 80.7008 187.662 80.9274 187.156 81.0302C186.666 81.1296 186.194 81.149 185.739 81.0881C185.288 81.0436 184.78 80.9683 184.214 80.862C183.652 80.7721 182.939 80.6956 182.076 80.6327L182.007 80.2897C182.748 79.9181 183.357 79.565 183.833 79.2302C184.313 78.9117 184.752 78.6441 185.15 78.4272C185.565 78.207 186.017 78.0471 186.507 77.9477C187.013 77.8449 187.443 77.9107 187.797 78.1451C188.15 78.3794 188.372 78.7171 188.461 79.1582ZM189.259 83.1033C189.348 83.5444 189.275 83.9418 189.041 84.2955C188.823 84.6459 188.46 84.8725 187.954 84.9752C187.464 85.0747 186.992 85.094 186.537 85.0332C186.086 84.9887 185.578 84.9134 185.012 84.8071C184.45 84.7171 183.737 84.6407 182.874 84.5778L182.805 84.2347C183.546 83.8632 184.155 83.5101 184.631 83.1753C185.111 82.8568 185.55 82.5892 185.948 82.3723C186.363 82.1521 186.815 81.9922 187.305 81.8928C187.811 81.79 188.241 81.8558 188.595 82.0901C188.948 82.3245 189.17 82.6622 189.259 83.1033Z" fill="#017113"/>
</svg>
