<svg width="70" height="70" viewBox="0 0 70 70" fill="none" xmlns="http://www.w3.org/2000/svg">
<path fill-rule="evenodd" clip-rule="evenodd" d="M21.7788 0C24.9929 0.0525 37.9808 7.43458 40.4046 24.9608C43.0442 22.3679 44.5142 14.2742 43.75 10.8354C55.2767 19.495 61.25 30.6133 61.25 43.0179C61.25 57.8754 51.2458 70 35.1079 70C18.4012 70 8.75 59.0537 8.75 45.8617C8.75 27.6033 23.485 23.6367 21.7788 0ZM31.2929 57.5838C29.1083 60.0571 30.2196 63.2567 33.5183 63.5483C36.5371 63.8196 38.6488 61.18 39.445 58.3217C40.2413 55.4692 39.7075 52.43 38.3687 49.8838C35.4579 54.3025 33.9354 54.6671 31.2929 57.5838ZM44.1846 62.2738C51.4471 58.9313 55.4196 51.5317 55.4196 43.0821C55.4196 36.2046 52.6779 28.5658 48.1279 22.5487C45.9608 30.9108 39.5996 34.1513 35 35C35.1458 25.6112 34.0725 17.0538 27.4108 10.3892C26.5475 24.1908 14.8079 32.6433 14.5833 45.7217C14.4988 50.1287 16.0825 55.0638 19.6292 58.5988C21.0613 60.025 22.7033 61.1392 24.4825 61.9821C24.1296 60.2088 24.3017 58.3246 25.0513 56.5921C27.7083 50.4496 34.7725 49.8225 37.3071 39.8096C40.0838 41.9942 46.8592 50.0267 45.4096 58.3538C45.1704 59.7217 44.7563 61.0458 44.1846 62.2738Z" fill="#017113"/>
</svg>
