<svg width="70" height="70" viewBox="0 0 70 70" fill="none" xmlns="http://www.w3.org/2000/svg">
<path fill-rule="evenodd" clip-rule="evenodd" d="M35 0C25.1679 8.35917 19.005 8.75 8.75 8.75V42.3937C8.75 55.8192 18.0921 59.3221 35 70C51.9079 59.3221 61.25 55.8192 61.25 42.3937V8.75C50.995 8.75 44.8321 8.35917 35 0ZM35 7.42C42.2917 12.6846 48.2854 14.105 55.4167 14.4667V42.3937C55.4167 51.2663 50.4992 53.5558 35 63.1254C19.5154 53.5646 14.5833 51.2692 14.5833 42.3937V14.4667C21.7204 14.105 27.7083 12.6846 35 7.42ZM35 18.9583C43.855 18.9583 51.0417 26.145 51.0417 35C51.0417 43.855 43.855 51.0417 35 51.0417C26.145 51.0417 18.9583 43.855 18.9583 35C18.9583 26.145 26.145 18.9583 35 18.9583ZM37.9167 26.25H32.0833V32.0833H26.25V37.9167H32.0833V43.75H37.9167V37.9167H43.75V32.0833H37.9167V26.25Z" fill="#017113"/>
</svg>
