<svg width="10" height="10" viewBox="0 0 10 10" fill="none" xmlns="http://www.w3.org/2000/svg">
<path d="M5.00001 5.66331C5.35351 5.66331 5.69255 5.52293 5.94258 5.27303C6.19261 5.02312 6.33316 4.68415 6.33334 4.33065C6.33334 3.97703 6.19286 3.63789 5.94281 3.38784C5.69277 3.13779 5.35363 2.99731 5.00001 2.99731C4.64638 2.99731 4.30724 3.13779 4.0572 3.38784C3.80715 3.63789 3.66667 3.97703 3.66667 4.33065C3.66685 4.68415 3.8074 5.02312 4.05743 5.27303C4.30746 5.52293 4.6465 5.66331 5.00001 5.66331Z" stroke="#616161" stroke-linecap="square"/>
<path d="M9 4.33059C9 7.66192 5.66667 9.66059 5 9.66059C4.33333 9.66059 1 7.66192 1 4.33059C1.00053 3.27013 1.42221 2.25329 2.17232 1.50369C2.92243 0.75408 3.93954 0.333075 5 0.333252C7.20867 0.333252 9 2.12325 9 4.33059Z" stroke="#616161" stroke-linecap="square"/>
</svg>
