<svg width="138" height="49" viewBox="0 0 138 49" fill="none" xmlns="http://www.w3.org/2000/svg">
<path d="M16.275 24.9C16.4917 25.45 16.7417 25.85 17.025 26.1C17.3083 26.35 17.5833 26.4833 17.85 26.5V27C16.85 26.95 15.5833 26.925 14.05 26.925C12.35 26.925 11.0833 26.95 10.25 27V26.5C10.8833 26.4667 11.3333 26.3917 11.6 26.275C11.8667 26.1417 12 25.9167 12 25.6C12 25.3 11.9 24.9 11.7 24.4L10.2 20.3H4.75L4.1 22.025C3.63333 23.225 3.4 24.15 3.4 24.8C3.4 25.4167 3.58333 25.85 3.95 26.1C4.33333 26.3333 4.89167 26.4667 5.625 26.5V27C4.49167 26.95 3.45833 26.925 2.525 26.925C1.75833 26.925 1.125 26.95 0.625 27V26.5C1.44167 26.35 2.15833 25.475 2.775 23.875L8.475 9.25C8.65833 9.26667 8.95 9.275 9.35 9.275C9.75 9.275 10.0333 9.26667 10.2 9.25L16.275 24.9ZM10.025 19.8L7.55 13.05L4.95 19.8H10.025ZM26.9895 8.95C27.9895 8.95 28.8395 9.09167 29.5395 9.375C30.2395 9.65833 30.9228 10.0583 31.5895 10.575C31.7728 10.725 31.9311 10.8 32.0645 10.8C32.3978 10.8 32.6145 10.3 32.7145 9.3H33.2895C33.2228 10.4333 33.1895 12.45 33.1895 15.35H32.6145C32.4645 14.1167 32.2645 13.175 32.0145 12.525C31.7645 11.875 31.3395 11.3083 30.7395 10.825C30.3228 10.425 29.8395 10.125 29.2895 9.925C28.7395 9.70833 28.1645 9.6 27.5645 9.6C25.8811 9.6 24.6311 10.425 23.8145 12.075C22.9978 13.7083 22.5895 15.75 22.5895 18.2C22.5895 20.6333 23.0145 22.6667 23.8645 24.3C24.7145 25.9333 25.9811 26.75 27.6645 26.75C28.2311 26.75 28.7895 26.65 29.3395 26.45C29.9061 26.2333 30.3811 25.925 30.7645 25.525C31.3811 25.0583 31.8061 24.475 32.0395 23.775C32.2895 23.075 32.4811 22.05 32.6145 20.7H33.1895C33.1895 23.7167 33.2228 25.8167 33.2895 27H32.7145C32.6645 26.4667 32.5895 26.0917 32.4895 25.875C32.4061 25.6417 32.2811 25.525 32.1145 25.525C31.9811 25.525 31.8061 25.5917 31.5895 25.725C30.8395 26.2583 30.1228 26.6667 29.4395 26.95C28.7561 27.2167 27.9311 27.35 26.9645 27.35C25.1978 27.35 23.6478 26.9917 22.3145 26.275C20.9978 25.5583 19.9728 24.525 19.2395 23.175C18.5061 21.8083 18.1395 20.1833 18.1395 18.3C18.1395 16.4667 18.5145 14.8417 19.2645 13.425C20.0145 12.0083 21.0561 10.9083 22.3895 10.125C23.7395 9.34167 25.2728 8.95 26.9895 8.95ZM50.7414 9.3C50.6247 10.8833 50.5664 12.3 50.5664 13.55C50.5664 14.3333 50.5914 14.9667 50.6414 15.45H50.0664C49.6664 13.4 49.1164 11.9583 48.4164 11.125C47.7331 10.2917 46.7914 9.875 45.5914 9.875H45.0164V24.15C45.0164 24.85 45.0831 25.3583 45.2164 25.675C45.3664 25.9917 45.6164 26.2083 45.9664 26.325C46.3331 26.425 46.9081 26.4833 47.6914 26.5V27C45.5914 26.95 44.0081 26.925 42.9414 26.925C41.8914 26.925 40.3664 26.95 38.3664 27V26.5C39.1497 26.4833 39.7164 26.425 40.0664 26.325C40.4331 26.2083 40.6831 25.9917 40.8164 25.675C40.9664 25.3583 41.0414 24.85 41.0414 24.15V9.875H40.4914C39.6914 9.875 39.0081 10.05 38.4414 10.4C37.8914 10.75 37.4164 11.3333 37.0164 12.15C36.6164 12.95 36.2747 14.05 35.9914 15.45H35.4164C35.4664 14.9667 35.4914 14.3333 35.4914 13.55C35.4914 12.3 35.4331 10.8833 35.3164 9.3C36.8331 9.35 39.4081 9.375 43.0414 9.375C46.6747 9.375 49.2414 9.35 50.7414 9.3ZM58.0906 19.85V24.2C58.0906 24.8667 58.1573 25.3583 58.2906 25.675C58.4406 25.975 58.6906 26.175 59.0406 26.275C59.4073 26.375 59.9823 26.4333 60.7656 26.45V27C58.7156 26.95 57.1906 26.925 56.1906 26.925C55.3573 26.925 54.3073 26.9417 53.0406 26.975L52.2406 27V26.5C52.7906 26.4667 53.1906 26.4 53.4406 26.3C53.7073 26.2 53.8823 26.0083 53.9656 25.725C54.0656 25.4417 54.1156 24.9833 54.1156 24.35V11.95C54.1156 11.3167 54.0656 10.8583 53.9656 10.575C53.8823 10.2917 53.7073 10.1 53.4406 10C53.1906 9.9 52.7906 9.83333 52.2406 9.8V9.3C53.0906 9.35 54.3573 9.375 56.0406 9.375L58.8156 9.35C59.149 9.33333 59.5323 9.325 59.9656 9.325C62.2156 9.325 63.9323 9.775 65.1156 10.675C66.299 11.5583 66.8906 12.75 66.8906 14.25C66.8906 15.1667 66.6573 16.05 66.1906 16.9C65.724 17.7333 64.9323 18.4333 63.8156 19C62.7156 19.5667 61.249 19.85 59.4156 19.85H58.0906ZM59.6406 9.8C59.1906 9.8 58.8573 9.85833 58.6406 9.975C58.4406 10.0917 58.299 10.3 58.2156 10.6C58.1323 10.9 58.0906 11.35 58.0906 11.95V19.35H59.1656C60.5156 19.35 61.449 18.9167 61.9656 18.05C62.4823 17.1833 62.7406 16.0083 62.7406 14.525C62.7406 12.9083 62.499 11.7167 62.0156 10.95C61.549 10.1833 60.7573 9.8 59.6406 9.8ZM81.2652 24.9C81.4819 25.45 81.7319 25.85 82.0152 26.1C82.2986 26.35 82.5736 26.4833 82.8402 26.5V27C81.8402 26.95 80.5736 26.925 79.0402 26.925C77.3402 26.925 76.0736 26.95 75.2402 27V26.5C75.8736 26.4667 76.3236 26.3917 76.5902 26.275C76.8569 26.1417 76.9902 25.9167 76.9902 25.6C76.9902 25.3 76.8902 24.9 76.6902 24.4L75.1902 20.3H69.7402L69.0902 22.025C68.6236 23.225 68.3902 24.15 68.3902 24.8C68.3902 25.4167 68.5736 25.85 68.9402 26.1C69.3236 26.3333 69.8819 26.4667 70.6152 26.5V27C69.4819 26.95 68.4486 26.925 67.5152 26.925C66.7486 26.925 66.1152 26.95 65.6152 27V26.5C66.4319 26.35 67.1486 25.475 67.7652 23.875L73.4652 9.25C73.6486 9.26667 73.9402 9.275 74.3402 9.275C74.7402 9.275 75.0236 9.26667 75.1902 9.25L81.2652 24.9ZM75.0152 19.8L72.5402 13.05L69.9402 19.8H75.0152ZM105.015 9.8C104.448 9.83333 104.04 9.9 103.79 10C103.54 10.1 103.365 10.2917 103.265 10.575C103.182 10.8583 103.14 11.3167 103.14 11.95V24.35C103.14 24.9833 103.182 25.4417 103.265 25.725C103.365 26.0083 103.54 26.2 103.79 26.3C104.057 26.4 104.465 26.4667 105.015 26.5V27C104.098 26.95 102.79 26.925 101.09 26.925C99.3067 26.925 97.99 26.95 97.14 27V26.5C97.74 26.4667 98.1734 26.4 98.44 26.3C98.7234 26.2 98.915 26.0083 99.015 25.725C99.115 25.4417 99.165 24.9833 99.165 24.35V11.275L93.14 27.025H92.74L85.99 10.925V22.9C85.99 23.8833 86.04 24.6083 86.14 25.075C86.24 25.525 86.4567 25.8583 86.79 26.075C87.1234 26.275 87.665 26.4167 88.415 26.5V27C87.765 26.95 86.865 26.925 85.715 26.925C84.7984 26.925 84.0734 26.95 83.54 27V26.5C84.09 26.4167 84.49 26.275 84.74 26.075C85.0067 25.875 85.1817 25.5583 85.265 25.125C85.365 24.6917 85.415 24.05 85.415 23.2V11.95C85.415 11.3167 85.365 10.8583 85.265 10.575C85.1817 10.2917 85.0067 10.1 84.74 10C84.49 9.9 84.09 9.83333 83.54 9.8V9.3C84.0734 9.35 84.7984 9.375 85.715 9.375C87.2484 9.375 88.565 9.35 89.665 9.3L94.715 21.475L99.315 9.375H101.09C102.79 9.375 104.098 9.35 105.015 9.3V9.8ZM120.384 23.2C120.384 24.7333 120.442 26 120.559 27C119.426 26.95 117.517 26.925 114.834 26.925C111.201 26.925 108.484 26.95 106.684 27V26.5C107.234 26.4667 107.634 26.4 107.884 26.3C108.151 26.2 108.326 26.0083 108.409 25.725C108.509 25.4417 108.559 24.9833 108.559 24.35V11.95C108.559 11.3167 108.509 10.8583 108.409 10.575C108.326 10.2917 108.151 10.1 107.884 10C107.634 9.9 107.234 9.83333 106.684 9.8V9.3C108.484 9.35 111.201 9.375 114.834 9.375C117.284 9.375 119.026 9.35 120.059 9.3C119.942 10.6833 119.884 11.9167 119.884 13C119.884 13.7333 119.909 14.3 119.959 14.7H119.384C119.134 12.9167 118.684 11.6667 118.034 10.95C117.384 10.2333 116.467 9.875 115.284 9.875H114.259C113.742 9.875 113.367 9.91667 113.134 10C112.901 10.0833 112.742 10.25 112.659 10.5C112.576 10.7333 112.534 11.1167 112.534 11.65V17.85H113.334C114.217 17.85 114.884 17.525 115.334 16.875C115.801 16.225 116.126 15.45 116.309 14.55H116.884C116.834 15.25 116.809 16.0333 116.809 16.9V18.1C116.809 18.95 116.859 20.1333 116.959 21.65H116.384C116.034 19.45 115.017 18.35 113.334 18.35H112.534V24.65C112.534 25.1833 112.576 25.575 112.659 25.825C112.742 26.0583 112.901 26.2167 113.134 26.3C113.367 26.3833 113.742 26.425 114.259 26.425H115.484C116.667 26.425 117.617 26.025 118.334 25.225C119.067 24.4083 119.584 23.0333 119.884 21.1H120.459C120.409 21.65 120.384 22.35 120.384 23.2ZM137.629 26.5C137.512 27.7167 137.454 28.8 137.454 29.75C137.454 30.4333 137.479 30.975 137.529 31.375H136.954C136.704 29.775 136.237 28.6417 135.554 27.975C134.87 27.325 133.92 27 132.704 27H126.654C125.437 27 124.487 27.325 123.804 27.975C123.12 28.6417 122.654 29.775 122.404 31.375H121.829C121.879 30.975 121.904 30.4333 121.904 29.75C121.904 28.8 121.845 27.7167 121.729 26.5H122.179C123.329 26.5 124.212 25.8417 124.829 24.525C125.462 23.2083 125.895 21.625 126.129 19.775C126.379 17.925 126.595 15.525 126.779 12.575L126.829 11.95C126.862 11.35 126.829 10.9083 126.729 10.625C126.645 10.325 126.462 10.125 126.179 10.025C125.895 9.90833 125.437 9.83333 124.804 9.8V9.3C125.504 9.35 126.362 9.375 127.379 9.375C127.629 9.375 128.004 9.35833 128.504 9.325L129.579 9.3L131.254 9.325C132.02 9.35833 132.654 9.375 133.154 9.375C134.87 9.375 136.162 9.35 137.029 9.3V9.8C136.429 9.83333 135.987 9.9 135.704 10C135.437 10.1 135.254 10.2917 135.154 10.575C135.054 10.8583 135.004 11.3167 135.004 11.95V24.35C135.004 24.9833 135.045 25.45 135.129 25.75C135.229 26.0333 135.404 26.2333 135.654 26.35C135.92 26.45 136.329 26.5 136.879 26.5H137.629ZM131.029 11.95C131.029 11.35 130.97 10.9 130.854 10.6C130.754 10.2833 130.579 10.075 130.329 9.975C130.095 9.85833 129.754 9.8 129.304 9.8H128.979C128.595 9.8 128.304 9.85833 128.104 9.975C127.904 10.0917 127.745 10.3 127.629 10.6C127.529 10.9 127.454 11.35 127.404 11.95L127.204 14.4C127.054 16.5667 126.887 18.375 126.704 19.825C126.52 21.2583 126.204 22.6 125.754 23.85C125.304 25.1 124.67 25.9833 123.854 26.5H129.004C129.587 26.5 130.02 26.45 130.304 26.35C130.587 26.2333 130.779 26.0333 130.879 25.75C130.979 25.45 131.029 24.9833 131.029 24.35V11.95Z" fill="#004A0C"/>
<path d="M8.07227 44.4067C8.68262 44.4067 9.19287 44.2358 9.60303 43.894C10.0181 43.5474 10.2427 43.1006 10.2769 42.5537H11.1191C11.0947 43.0371 10.9434 43.479 10.665 43.8794C10.3867 44.2749 10.0156 44.585 9.55176 44.8096C9.09277 45.0342 8.59961 45.1465 8.07227 45.1465C7.03223 45.1465 6.20703 44.7852 5.59668 44.0625C4.99121 43.3398 4.68848 42.3682 4.68848 41.1475V40.8838C4.68848 40.1025 4.8252 39.4116 5.09863 38.811C5.37207 38.2104 5.7627 37.7466 6.27051 37.4194C6.7832 37.0923 7.38135 36.9287 8.06494 36.9287C8.93408 36.9287 9.64941 37.1875 10.2109 37.7051C10.7773 38.2227 11.0801 38.9038 11.1191 39.7485H10.2769C10.2378 39.1284 10.0132 38.6279 9.60303 38.2471C9.19775 37.8662 8.68506 37.6758 8.06494 37.6758C7.27393 37.6758 6.65869 37.9614 6.21924 38.5327C5.78467 39.104 5.56738 39.9048 5.56738 40.9351V41.1914C5.56738 42.2021 5.78467 42.9907 6.21924 43.5571C6.65869 44.1235 7.27637 44.4067 8.07227 44.4067ZM18.5679 37.8223H15.6821V45H14.8032V37.8223H12.0273V37.0752H18.5679V37.8223ZM26.3828 41.1182C26.3828 42.3535 26.1094 43.335 25.5625 44.0625C25.0156 44.7852 24.2832 45.1465 23.3652 45.1465C22.2812 45.1465 21.4512 44.7656 20.875 44.0039V48.0469H20.0034V37.0752H20.8164L20.8604 38.1958C21.4316 37.3511 22.2593 36.9287 23.3433 36.9287C24.2905 36.9287 25.0327 37.2876 25.5698 38.0054C26.1118 38.7231 26.3828 39.7192 26.3828 40.9937V41.1182ZM25.5039 40.9644C25.5039 39.9536 25.2964 39.1553 24.8813 38.5693C24.4663 37.9834 23.8877 37.6904 23.1455 37.6904C22.6084 37.6904 22.147 37.8198 21.7612 38.0786C21.3755 38.3374 21.0801 38.7134 20.875 39.2065V43.0078C21.085 43.4619 21.3853 43.8086 21.7759 44.0479C22.1665 44.2871 22.6279 44.4067 23.1602 44.4067C23.8975 44.4067 24.4712 44.1138 24.8813 43.5278C25.2964 42.937 25.5039 42.0825 25.5039 40.9644ZM33.3335 45C33.2456 44.751 33.1895 44.3823 33.165 43.894C32.8574 44.2944 32.4644 44.6045 31.9858 44.8242C31.5122 45.0391 31.0093 45.1465 30.4771 45.1465C29.7153 45.1465 29.0977 44.9341 28.624 44.5093C28.1553 44.0845 27.9209 43.5474 27.9209 42.8979C27.9209 42.1265 28.2407 41.5161 28.8804 41.0669C29.5249 40.6177 30.4209 40.3931 31.5684 40.3931H33.1577V39.4922C33.1577 38.9258 32.9819 38.4814 32.6304 38.1592C32.2837 37.832 31.7759 37.6685 31.1069 37.6685C30.4966 37.6685 29.9912 37.8247 29.5908 38.1372C29.1904 38.4497 28.9902 38.8257 28.9902 39.2651L28.1113 39.2578C28.1113 38.6279 28.4043 38.0835 28.9902 37.6245C29.5762 37.1606 30.2964 36.9287 31.1509 36.9287C32.0347 36.9287 32.7305 37.1509 33.2383 37.5952C33.751 38.0347 34.0146 38.6499 34.0293 39.4409V43.1909C34.0293 43.9575 34.1099 44.5312 34.271 44.9121V45H33.3335ZM30.5796 44.3701C31.1655 44.3701 31.688 44.2285 32.147 43.9453C32.6108 43.6621 32.9478 43.2837 33.1577 42.8101V41.0669H31.5903C30.7163 41.0767 30.0327 41.2378 29.5396 41.5503C29.0464 41.8579 28.7998 42.2827 28.7998 42.8247C28.7998 43.269 28.9634 43.6377 29.2905 43.9307C29.6226 44.2236 30.0522 44.3701 30.5796 44.3701ZM38.8633 40.2905L41.002 37.0752H42.042L39.354 40.9644L42.1592 45H41.1265L38.8706 41.6455L36.6147 45H35.582L38.3799 40.9644L35.6919 37.0752H36.7246L38.8633 40.2905ZM43.0381 40.9204C43.0381 40.1587 43.1846 39.4727 43.4775 38.8623C43.7754 38.252 44.1929 37.7783 44.73 37.4414C45.272 37.0996 45.8848 36.9287 46.5684 36.9287C47.623 36.9287 48.4775 37.2998 49.1318 38.042C49.7861 38.7793 50.1133 39.7583 50.1133 40.979V41.1621C50.1133 41.9287 49.9644 42.6196 49.6665 43.2349C49.3735 43.8452 48.9585 44.3164 48.4214 44.6484C47.8843 44.9805 47.2715 45.1465 46.583 45.1465C45.5332 45.1465 44.6787 44.7778 44.0195 44.0405C43.3652 43.2983 43.0381 42.3169 43.0381 41.0962V40.9204ZM43.917 41.1621C43.917 42.1094 44.1611 42.8882 44.6494 43.4985C45.1426 44.104 45.7871 44.4067 46.583 44.4067C47.374 44.4067 48.0137 44.104 48.502 43.4985C48.9951 42.8882 49.2417 42.085 49.2417 41.0889V40.9204C49.2417 40.3149 49.1294 39.7607 48.9048 39.2578C48.6802 38.7549 48.3652 38.3667 47.96 38.0933C47.5547 37.8149 47.0908 37.6758 46.5684 37.6758C45.7871 37.6758 45.1499 37.9834 44.6567 38.5986C44.1636 39.209 43.917 40.0098 43.917 41.001V41.1621ZM52.0249 45V37.0752H54.9326C55.9385 37.0752 56.71 37.2559 57.2471 37.6172C57.7842 37.9736 58.0527 38.4985 58.0527 39.1919C58.0527 39.5874 57.9331 39.9414 57.6938 40.2539C57.4546 40.5615 57.1055 40.7861 56.6465 40.9277C57.1641 41.0254 57.5791 41.2476 57.8916 41.5942C58.209 41.9409 58.3677 42.3438 58.3677 42.8027C58.3677 43.501 58.1089 44.043 57.5913 44.4287C57.0786 44.8096 56.3511 45 55.4087 45H52.0249ZM52.8965 41.3525V44.2676H55.438C56.0972 44.2676 56.605 44.1406 56.9614 43.8867C57.3179 43.6328 57.4961 43.2666 57.4961 42.7881C57.4961 42.3486 57.3179 41.9995 56.9614 41.7407C56.605 41.4819 56.0972 41.3525 55.438 41.3525H52.8965ZM52.8965 40.6201H55.1157C56.4927 40.6006 57.1812 40.1318 57.1812 39.2139C57.1812 38.7305 56.9907 38.3789 56.6099 38.1592C56.2339 37.9346 55.6748 37.8223 54.9326 37.8223H52.8965V40.6201ZM65.3257 45C65.2378 44.751 65.1816 44.3823 65.1572 43.894C64.8496 44.2944 64.4565 44.6045 63.978 44.8242C63.5044 45.0391 63.0015 45.1465 62.4692 45.1465C61.7075 45.1465 61.0898 44.9341 60.6162 44.5093C60.1475 44.0845 59.9131 43.5474 59.9131 42.8979C59.9131 42.1265 60.2329 41.5161 60.8726 41.0669C61.5171 40.6177 62.4131 40.3931 63.5605 40.3931H65.1499V39.4922C65.1499 38.9258 64.9741 38.4814 64.6226 38.1592C64.2759 37.832 63.7681 37.6685 63.0991 37.6685C62.4888 37.6685 61.9834 37.8247 61.583 38.1372C61.1826 38.4497 60.9824 38.8257 60.9824 39.2651L60.1035 39.2578C60.1035 38.6279 60.3965 38.0835 60.9824 37.6245C61.5684 37.1606 62.2886 36.9287 63.1431 36.9287C64.0269 36.9287 64.7227 37.1509 65.2305 37.5952C65.7432 38.0347 66.0068 38.6499 66.0215 39.4409V43.1909C66.0215 43.9575 66.1021 44.5312 66.2632 44.9121V45H65.3257ZM62.5718 44.3701C63.1577 44.3701 63.6802 44.2285 64.1392 43.9453C64.603 43.6621 64.9399 43.2837 65.1499 42.8101V41.0669H63.5825C62.7085 41.0767 62.0249 41.2378 61.5317 41.5503C61.0386 41.8579 60.792 42.2827 60.792 42.8247C60.792 43.269 60.9556 43.6377 61.2827 43.9307C61.6147 44.2236 62.0444 44.3701 62.5718 44.3701ZM74.166 41.3672H72.9502V45H72.064V37.0752H72.9502V40.5908H74.1514L77.0591 37.0752H78.165L74.9131 40.9204L78.5239 45H77.3667L74.166 41.3672ZM79.1465 40.9204C79.1465 40.1587 79.293 39.4727 79.5859 38.8623C79.8838 38.252 80.3013 37.7783 80.8384 37.4414C81.3804 37.0996 81.9932 36.9287 82.6768 36.9287C83.7314 36.9287 84.5859 37.2998 85.2402 38.042C85.8945 38.7793 86.2217 39.7583 86.2217 40.979V41.1621C86.2217 41.9287 86.0728 42.6196 85.7749 43.2349C85.4819 43.8452 85.0669 44.3164 84.5298 44.6484C83.9927 44.9805 83.3799 45.1465 82.6914 45.1465C81.6416 45.1465 80.7871 44.7778 80.1279 44.0405C79.4736 43.2983 79.1465 42.3169 79.1465 41.0962V40.9204ZM80.0254 41.1621C80.0254 42.1094 80.2695 42.8882 80.7578 43.4985C81.251 44.104 81.8955 44.4067 82.6914 44.4067C83.4824 44.4067 84.1221 44.104 84.6104 43.4985C85.1035 42.8882 85.3501 42.085 85.3501 41.0889V40.9204C85.3501 40.3149 85.2378 39.7607 85.0132 39.2578C84.7886 38.7549 84.4736 38.3667 84.0684 38.0933C83.6631 37.8149 83.1992 37.6758 82.6768 37.6758C81.8955 37.6758 81.2583 37.9834 80.7651 38.5986C80.272 39.209 80.0254 40.0098 80.0254 41.001V41.1621ZM92.4253 43.8135L95.5747 37.0752H96.6587V45H95.7798V38.4961L92.7329 45H92.1104L89.0049 38.3496V45H88.1333V37.0752H89.2832L92.4253 43.8135ZM105.096 45H104.217V37.8296H99.9473V45H99.0684V37.0752H105.096V45ZM112.45 45C112.362 44.751 112.306 44.3823 112.281 43.894C111.974 44.2944 111.581 44.6045 111.102 44.8242C110.628 45.0391 110.125 45.1465 109.593 45.1465C108.832 45.1465 108.214 44.9341 107.74 44.5093C107.271 44.0845 107.037 43.5474 107.037 42.8979C107.037 42.1265 107.357 41.5161 107.997 41.0669C108.641 40.6177 109.537 40.3931 110.685 40.3931H112.274V39.4922C112.274 38.9258 112.098 38.4814 111.747 38.1592C111.4 37.832 110.892 37.6685 110.223 37.6685C109.613 37.6685 109.107 37.8247 108.707 38.1372C108.307 38.4497 108.106 38.8257 108.106 39.2651L107.228 39.2578C107.228 38.6279 107.521 38.0835 108.106 37.6245C108.692 37.1606 109.413 36.9287 110.267 36.9287C111.151 36.9287 111.847 37.1509 112.354 37.5952C112.867 38.0347 113.131 38.6499 113.146 39.4409V43.1909C113.146 43.9575 113.226 44.5312 113.387 44.9121V45H112.45ZM109.696 44.3701C110.282 44.3701 110.804 44.2285 111.263 43.9453C111.727 43.6621 112.064 43.2837 112.274 42.8101V41.0669H110.707C109.833 41.0767 109.149 41.2378 108.656 41.5503C108.163 41.8579 107.916 42.2827 107.916 42.8247C107.916 43.269 108.08 43.6377 108.407 43.9307C108.739 44.2236 109.168 44.3701 109.696 44.3701ZM121.576 45H120.697V41.3672H116.427V45H115.548V37.0752H116.427V40.6274H120.697V37.0752H121.576V45ZM124.908 45H124.029V37.0752H124.908V45ZM123.875 34.7827C123.875 34.6167 123.929 34.4775 124.037 34.3652C124.144 34.248 124.291 34.1895 124.476 34.1895C124.662 34.1895 124.808 34.248 124.916 34.3652C125.028 34.4775 125.084 34.6167 125.084 34.7827C125.084 34.9487 125.028 35.0879 124.916 35.2002C124.808 35.3125 124.662 35.3687 124.476 35.3687C124.291 35.3687 124.144 35.3125 124.037 35.2002C123.929 35.0879 123.875 34.9487 123.875 34.7827ZM133.075 37.0752V45H132.196V41.8066H129.735L127.801 45H126.834L128.827 41.6968C128.285 41.5552 127.862 41.2817 127.56 40.8765C127.262 40.4712 127.113 39.9927 127.113 39.4409C127.113 38.7231 127.369 38.1494 127.882 37.7197C128.399 37.29 129.098 37.0752 129.977 37.0752H133.075ZM127.992 39.4556C127.992 39.9194 128.138 40.3003 128.431 40.5981C128.729 40.896 129.142 41.0498 129.669 41.0596H132.196V37.8223H129.955C129.344 37.8223 128.863 37.9688 128.512 38.2617C128.165 38.5547 127.992 38.9526 127.992 39.4556Z" fill="#494949"/>
</svg>
