<svg width="24" height="24" viewBox="0 0 24 24" fill="none" xmlns="http://www.w3.org/2000/svg">
<path d="M6.17609 1.322L9.02009 0L13.0611 7.89L10.3371 9.231C9.79909 10.49 12.4961 15.52 13.6341 15.603C13.7241 15.545 16.3051 14.275 16.3051 14.275L20.4151 22.207C20.4151 22.207 17.6511 23.561 17.5611 23.603C9.69909 27.194 -1.54191 5.345 6.17609 1.322ZM8.10509 2.596L7.08209 3.1C1.78809 5.862 11.2591 24.285 16.7301 21.786L17.7011 21.312L15.4301 16.929L14.4041 17.429C11.2411 18.976 6.14209 9.21 9.34909 7.491L10.3561 6.994L8.10509 2.596Z" fill="#017113"/>
</svg>
