<svg width="50" height="50" viewBox="0 0 50 50" fill="none" xmlns="http://www.w3.org/2000/svg">
<path d="M25 5.50833C31.1771 10.1708 38.4521 11.7667 43.5667 12.2792C42.1959 26.9708 33.375 38.5146 25 44.8937C16.623 38.5146 7.80212 26.9708 6.43337 12.2771C11.5459 11.7667 18.823 10.1708 25 5.50833ZM25 0C18.7584 6.23958 9.40421 8.33333 2.08337 8.33333C2.08337 26.2146 12.6396 41.8687 25 50C37.3584 41.8687 47.9167 26.2146 47.9167 8.33333C40.5938 8.33333 31.2375 6.23958 25 0ZM32.9042 16.6667L23.7771 25.9896L19.1625 21.5667L16.5855 24.1479L23.7771 31.1521L35.4834 19.2458L32.9042 16.6667Z" fill="#017113"/>
</svg>
