<svg width="24" height="24" viewBox="0 0 24 24" fill="none" xmlns="http://www.w3.org/2000/svg">
<g clip-path="url(#clip0_33_385)">
<path fill-rule="evenodd" clip-rule="evenodd" d="M12.892 13.7452C12.892 13.7452 13.319 13.7832 13.548 13.4982L13.996 12.9352C14.212 12.6552 14.734 12.4772 15.245 12.7612C15.921 13.1432 16.795 13.7432 17.394 14.3022C17.724 14.5802 17.801 14.9902 17.576 15.4232L17.574 15.4322C17.342 15.8402 17.033 16.2232 16.642 16.5802L16.633 16.5862C16.193 16.9532 15.687 17.1662 15.146 16.9902L15.136 16.9762C14.164 16.7012 11.832 15.5122 10.346 14.3272C7.91501 12.4092 6.18701 9.24524 5.70901 7.54924L5.69401 7.53924C5.51801 6.99624 5.73301 6.49024 6.09801 6.05124L6.10501 6.04324C6.46201 5.65224 6.84401 5.34224 7.25301 5.11124L7.26201 5.10924C7.69401 4.88424 8.10401 4.96024 8.38301 5.29124C8.75001 5.67024 9.43901 6.58224 9.92301 7.44024C10.207 7.95024 10.029 8.47324 9.75001 8.68824L9.18601 9.13624C8.90201 9.36624 8.93901 9.79324 8.93901 9.79324C8.93901 9.79324 9.77301 12.9492 12.892 13.7452ZM17.799 11.1292C17.632 11.1292 17.496 10.9942 17.495 10.8272C17.481 8.99724 16.931 7.53924 15.861 6.49524C14.789 5.45024 13.434 4.91424 11.834 4.90324C11.666 4.90224 11.531 4.76524 11.533 4.59724C11.534 4.43024 11.669 4.29624 11.836 4.29624H11.838C13.6 4.30824 15.096 4.90224 16.285 6.06024C17.475 7.22224 18.087 8.82524 18.102 10.8232C18.103 10.9902 17.969 11.1272 17.801 11.1292H17.799ZM16.204 10.5052H16.197C16.029 10.5012 15.896 10.3622 15.9 10.1952C15.924 9.15724 15.627 8.31724 14.994 7.62624C14.364 6.93724 13.499 6.56124 12.349 6.47724C12.182 6.46424 12.056 6.31924 12.068 6.15224C12.081 5.98524 12.226 5.85924 12.393 5.87124C13.687 5.96624 14.713 6.41924 15.442 7.21624C16.175 8.01624 16.534 9.02324 16.507 10.2082C16.503 10.3732 16.368 10.5052 16.204 10.5052ZM14.646 9.98324C14.485 9.98324 14.351 9.85724 14.343 9.69424C14.292 8.66424 13.806 8.16024 12.816 8.10624C12.648 8.09724 12.52 7.95424 12.529 7.78724C12.538 7.61924 12.68 7.49124 12.848 7.50024C14.156 7.57024 14.882 8.31924 14.949 9.66424C14.958 9.83124 14.829 9.97425 14.661 9.98224L14.646 9.98324ZM21.463 13.4522C20.858 18.3292 17.291 18.6372 16.633 18.8482C16.353 18.9382 13.751 19.5852 10.481 19.3722C10.481 19.3722 8.04301 22.3122 7.28201 23.0772C7.16301 23.1962 7.02401 23.2442 6.93001 23.2222C6.79901 23.1902 6.76301 23.0342 6.76501 22.8082L6.78501 18.7922V18.7912C2.02301 17.4682 2.30001 12.4962 2.35401 9.89324C2.40801 7.29024 2.89701 5.15724 4.35001 3.72324C6.96001 1.35924 12.337 1.71224 12.337 1.71224C16.878 1.73224 19.054 3.09924 19.559 3.55724C21.234 4.99124 22.087 8.42424 21.463 13.4522ZM20.811 2.33924C20.214 1.79124 17.804 0.0412429 12.436 0.0172429C12.436 0.0172429 6.10601 -0.364757 3.02001 2.46724C1.30201 4.18524 0.698007 6.69824 0.634007 9.81524C0.571007 12.9332 0.488007 18.7732 6.11801 20.3572L6.12401 20.3592L6.12001 22.7752C6.12001 22.7752 6.08501 23.7542 6.72901 23.9542C7.50801 24.1952 7.96501 23.4522 8.71001 22.6502C9.11801 22.2102 9.68101 21.5642 10.107 21.0702C13.958 21.3922 16.919 20.6532 17.256 20.5442C18.033 20.2912 22.433 19.7282 23.149 13.8872C23.887 7.86524 22.791 4.05724 20.811 2.33924Z" fill="#017113"/>
</g>
<defs>
<clipPath id="clip0_33_385">
<rect width="24" height="24" fill="white"/>
</clipPath>
</defs>
</svg>
